<svg width="112" height="48" viewBox="0 0 112 48" fill="none" xmlns="http://www.w3.org/2000/svg">
<path d="M42.2729 45.4091C42.0801 45.4091 41.9071 45.3696 41.7527 45.2906C41.5983 45.2116 41.4713 45.0985 41.3712 44.952C41.2712 44.8055 41.2062 44.6314 41.1758 44.4311L41.5233 44.3649C41.5675 44.5716 41.6591 44.7333 41.7983 44.8496C41.9375 44.9662 42.1014 45.0241 42.29 45.0241C42.4121 45.0241 42.5224 45.0011 42.6205 44.9548C42.7186 44.9084 42.7969 44.8418 42.8555 44.7549C42.914 44.6681 42.9433 44.5657 42.9433 44.4471C42.9433 44.3755 42.9327 44.313 42.911 44.2597C42.8897 44.2064 42.8612 44.1619 42.8262 44.1251C42.7908 44.0888 42.7505 44.0576 42.7053 44.0318C42.66 44.0057 42.6129 43.9836 42.5638 43.9657L41.8709 43.7172C41.7952 43.691 41.7222 43.6575 41.6515 43.6157C41.5812 43.5739 41.518 43.5215 41.4629 43.4581C41.4074 43.3951 41.3632 43.3184 41.3305 43.2288C41.2978 43.1393 41.2815 43.0332 41.2815 42.9119C41.2815 42.7189 41.3233 42.5531 41.407 42.4148C41.4906 42.2766 41.6043 42.1709 41.7481 42.0988C41.8918 42.0266 42.0535 41.9904 42.2333 41.9904C42.4159 41.9917 42.579 42.0312 42.7231 42.108C42.8677 42.1847 42.9871 42.2945 43.0821 42.4373C43.1772 42.5802 43.2411 42.7511 43.2738 42.9505L42.9171 43.0258C42.8981 42.8935 42.8562 42.7787 42.7912 42.6813C42.7262 42.5839 42.6456 42.5095 42.5486 42.4566C42.4516 42.4043 42.3455 42.3772 42.2295 42.3758C42.1189 42.3739 42.0185 42.396 41.9291 42.4406C41.8397 42.4851 41.7686 42.5471 41.7158 42.6252C41.6629 42.7033 41.6367 42.7929 41.6367 42.8935C41.6367 42.995 41.6606 43.0768 41.7085 43.1374C41.7561 43.1981 41.815 43.2468 41.885 43.2821C41.955 43.318 42.023 43.3469 42.09 43.3699L42.6072 43.55C42.6665 43.5697 42.7349 43.5973 42.8121 43.6322C42.8897 43.6671 42.965 43.7163 43.0376 43.7792C43.1107 43.8421 43.1711 43.9257 43.219 44.03C43.267 44.1343 43.2909 44.2652 43.2909 44.4232C43.2909 44.5817 43.2647 44.7223 43.2126 44.8454C43.1601 44.9685 43.0875 45.0724 42.9943 45.156C42.9011 45.2396 42.7931 45.303 42.6695 45.3452C42.5459 45.388 42.414 45.4091 42.2729 45.4091ZM107.725 32.7315H111.322V33.9576H107.725V32.7315ZM109.524 36.9555C108.968 36.9555 108.478 36.8108 108.054 36.5214C107.631 36.232 107.299 35.8333 107.059 35.3256C106.82 34.818 106.7 34.2364 106.7 33.5809C106.7 32.8647 106.817 32.2413 107.052 31.7112C107.286 31.1811 107.61 30.7695 108.022 30.4759C108.433 30.1828 108.907 30.0358 109.443 30.0358C110.013 30.0358 110.497 30.198 110.895 30.5214C111.294 30.8448 111.589 31.3001 111.78 31.8871C111.97 32.4738 112.037 33.1638 111.98 33.9567H110.629V33.3498C110.629 32.6823 110.541 32.2018 110.365 31.9083C110.19 31.6152 109.902 31.4682 109.504 31.4682C109.038 31.4682 108.695 31.6391 108.476 31.9813C108.257 32.3231 108.147 32.828 108.147 33.4954C108.147 34.1064 108.257 34.5787 108.476 34.9126C108.695 35.2462 109.018 35.4129 109.443 35.4129C109.711 35.4129 109.94 35.3422 110.131 35.2007C110.322 35.0592 110.468 34.8548 110.569 34.5879L111.935 35.0615C111.731 35.6605 111.408 36.1259 110.968 36.4576C110.528 36.7892 110.046 36.9551 109.523 36.9551L109.524 36.9555ZM103.937 36.9555C103.374 36.9555 102.892 36.8039 102.49 36.5003C102.088 36.1971 101.78 35.7841 101.565 35.2622C101.351 34.7404 101.244 34.1519 101.244 33.4964C101.244 32.8326 101.355 32.24 101.578 31.7181C101.8 31.1962 102.115 30.7855 102.52 30.486C102.925 30.1865 103.404 30.0368 103.957 30.0368C104.597 30.0368 105.133 30.2325 105.567 30.6225C106.001 31.0129 106.278 31.5463 106.399 32.2216L105.033 32.6589C104.952 32.319 104.812 32.0539 104.613 31.8637C104.414 31.6735 104.189 31.5789 103.937 31.5789C103.649 31.5789 103.413 31.663 103.229 31.8306C103.045 31.9988 102.909 32.2271 102.822 32.5165C102.735 32.8059 102.691 33.1325 102.691 33.4968C102.691 34.0674 102.796 34.5295 103.006 34.8832C103.215 35.2374 103.525 35.4143 103.937 35.4143C104.246 35.4143 104.48 35.3293 104.641 35.1593C104.802 34.9894 104.922 34.7463 105.002 34.4312L106.399 34.7831C106.245 35.4791 105.954 36.0152 105.525 36.3914C105.096 36.7676 104.567 36.956 103.937 36.956L103.937 36.9555ZM99.1035 36.7736V33.6783C99.1035 33.5285 99.097 33.3374 99.0833 33.1045C99.0696 32.8721 99.0282 32.6382 98.9578 32.4035C98.8875 32.1688 98.7726 31.9726 98.6137 31.8146C98.4547 31.6565 98.2292 31.578 97.9379 31.578C97.8204 31.578 97.6949 31.6 97.561 31.6446C97.4272 31.6892 97.3013 31.7751 97.1842 31.9028C97.0671 32.0305 96.9708 32.2174 96.8952 32.4641C96.8199 32.7108 96.7822 33.0384 96.7822 33.4472L95.9985 32.9979C95.9985 32.4798 96.0855 31.9946 96.2597 31.5412C96.4339 31.0883 96.6959 30.7217 97.0461 30.4429C97.3964 30.1635 97.8375 30.0243 98.3699 30.0243C98.7954 30.0243 99.1419 30.1112 99.41 30.2853C99.6777 30.4594 99.8861 30.6794 100.036 30.9468C100.185 31.2137 100.291 31.4921 100.355 31.7815C100.418 32.0709 100.457 32.335 100.47 32.5735C100.484 32.8119 100.49 32.9865 100.49 33.0953V36.7732H99.1039L99.1035 36.7736ZM95.3957 36.7736V30.2187H96.6115V32.3915H96.7826V36.7736H95.3961H95.3957ZM90.4219 32.7315H94.0191V33.9576H90.4219V32.7315ZM92.2207 36.9555C91.6647 36.9555 91.1749 36.8108 90.7513 36.5214C90.3273 36.232 89.996 35.8333 89.7564 35.3256C89.5169 34.818 89.3975 34.2364 89.3975 33.5809C89.3975 32.8647 89.5146 32.2413 89.7488 31.7112C89.9835 31.1811 90.3067 30.7695 90.7186 30.4759C91.1304 30.1828 91.6042 30.0358 92.1401 30.0358C92.7094 30.0358 93.1935 30.198 93.592 30.5214C93.9905 30.8448 94.2853 31.3001 94.4762 31.8871C94.6671 32.4738 94.734 33.1638 94.677 33.9567H93.3254V33.3498C93.3254 32.6823 93.2376 32.2018 93.0619 31.9083C92.8858 31.6152 92.5987 31.4682 92.2002 31.4682C91.7343 31.4682 91.3921 31.6391 91.1726 31.9813C90.9532 32.3231 90.8437 32.828 90.8437 33.4954C90.8437 34.1064 90.9532 34.5787 91.1726 34.9126C91.3921 35.2462 91.7145 35.4129 92.1397 35.4129C92.4078 35.4129 92.6371 35.3422 92.828 35.2007C93.0189 35.0592 93.1646 34.8548 93.265 34.5879L94.6313 35.0615C94.4271 35.6605 94.1046 36.1259 93.6643 36.4576C93.2239 36.7892 92.7424 36.9551 92.2199 36.9551L92.2207 36.9555ZM86.7241 36.7736V30.243C86.7241 30.0772 86.7275 29.8888 86.7343 29.6784C86.7408 29.4685 86.7685 29.2558 86.8172 29.0417C86.8659 28.8272 86.9553 28.6329 87.0861 28.4588C87.2534 28.2323 87.4352 28.0775 87.6314 27.9943C87.8273 27.9116 88.017 27.8666 88.2015 27.8611C88.3859 27.8552 88.5433 27.8519 88.6738 27.8519H89.3473V29.1874H88.7243C88.5099 29.1874 88.3505 29.253 88.2471 29.3849C88.1433 29.5163 88.0912 29.6729 88.0912 29.8548V36.7741H86.7248L86.7241 36.7736ZM85.8699 30.2187H89.3469V31.493H85.8699V30.2187ZM81.1373 32.7315H84.7344V33.9576H81.1373V32.7315ZM82.936 36.9555C82.3801 36.9555 81.8902 36.8108 81.4666 36.5214C81.043 36.232 80.7114 35.8333 80.4718 35.3256C80.2322 34.818 80.1128 34.2364 80.1128 33.5809C80.1128 32.8647 80.2299 32.2413 80.4642 31.7112C80.6988 31.1811 81.0221 30.7695 81.4339 30.4759C81.8458 30.1828 82.3196 30.0358 82.8554 30.0358C83.4247 30.0358 83.9088 30.198 84.3077 30.5214C84.7063 30.8448 85.001 31.3001 85.1919 31.8871C85.3828 32.4738 85.4497 33.1638 85.3927 33.9567H84.0411V33.3498C84.0411 32.6823 83.9533 32.2018 83.7776 31.9083C83.6015 31.6152 83.3144 31.4682 82.9159 31.4682C82.45 31.4682 82.1078 31.6391 81.8884 31.9813C81.6689 32.3231 81.5594 32.828 81.5594 33.4954C81.5594 34.1064 81.6689 34.5787 81.8884 34.9126C82.1078 35.2462 82.4299 35.4129 82.8554 35.4129C83.1235 35.4129 83.3528 35.3422 83.5441 35.2007C83.735 35.0592 83.8807 34.8548 83.9811 34.5879L85.3474 35.0615C85.1432 35.6605 84.8207 36.1259 84.3804 36.4576C83.94 36.7892 83.4585 36.9551 82.936 36.9551V36.9555ZM74.9177 35.2195H75.8722C75.9627 35.2195 76.0848 35.2163 76.2388 35.2103C76.3928 35.2044 76.532 35.1874 76.656 35.1589C76.9709 35.0822 77.228 34.9039 77.4272 34.6246C77.6265 34.3453 77.7737 34.0095 77.8691 33.6172C77.9646 33.2249 78.0125 32.8202 78.0125 32.4035C78.0125 31.9666 77.963 31.5518 77.8642 31.1595C77.7653 30.7672 77.6155 30.435 77.4147 30.164C77.2135 29.893 76.961 29.7212 76.656 29.6481C76.532 29.616 76.3932 29.5976 76.2388 29.5935C76.0848 29.5893 75.9624 29.5875 75.8722 29.5875H74.9177V35.22V35.2195ZM73.5308 36.7732V28.0334H75.8722C75.9289 28.0334 76.0464 28.0357 76.224 28.0394C76.4012 28.0435 76.572 28.0577 76.7362 28.0816C77.3188 28.1666 77.8132 28.4115 78.2186 28.8162C78.6236 29.2209 78.932 29.7345 79.1431 30.3579C79.3541 30.9808 79.4595 31.663 79.4595 32.403C79.4595 33.1436 79.3538 33.8253 79.1431 34.4487C78.932 35.0716 78.624 35.5856 78.2186 35.9899C77.8132 36.3946 77.3192 36.6395 76.7362 36.7245C76.572 36.7488 76.4012 36.763 76.224 36.7672C76.046 36.7713 75.9289 36.7732 75.8722 36.7732H73.5308ZM69.1499 27.851H70.5163V36.7732H69.1499V27.851ZM65.2414 35.6564C65.4923 35.6564 65.7045 35.6026 65.8768 35.4956C66.0495 35.3886 66.1864 35.2664 66.2887 35.1286C66.391 34.9907 66.4602 34.8754 66.4971 34.7826C66.5674 34.6049 66.6085 34.3972 66.6203 34.1606C66.6321 33.9241 66.6378 33.7265 66.6378 33.569L67.0397 33.6902C66.6343 33.7711 66.3062 33.8391 66.0548 33.8937C65.8034 33.9484 65.6007 33.998 65.4467 34.0426C65.2927 34.0871 65.1569 34.1358 65.0398 34.1882C64.9059 34.253 64.7979 34.3223 64.7158 34.3972C64.6337 34.4721 64.5736 34.5543 64.5348 34.643C64.4964 34.7321 64.4774 34.8313 64.4774 34.9407C64.4774 35.0904 64.5082 35.2191 64.5702 35.3261C64.6321 35.4336 64.72 35.5154 64.8341 35.5719C64.9478 35.6284 65.0835 35.6568 65.241 35.6568L65.2414 35.6564ZM64.9501 36.9555C64.5614 36.9555 64.2325 36.8655 63.9628 36.6854C63.6932 36.5053 63.4886 36.2646 63.3498 35.9633C63.211 35.6619 63.1414 35.3288 63.1414 34.965C63.1414 34.6614 63.1798 34.3843 63.257 34.1331C63.3342 33.8827 63.459 33.6608 63.6312 33.4688C63.8039 33.2768 64.0355 33.1155 64.3271 32.986C64.5279 32.8973 64.7675 32.8183 65.0455 32.7494C65.3235 32.681 65.6384 32.6153 65.9901 32.5523C66.3419 32.4899 66.7287 32.42 67.1508 32.3429L66.6583 32.6704C66.6583 32.2818 66.5811 31.9965 66.4271 31.8146C66.2731 31.6326 66.0152 31.5412 65.6536 31.5412C65.4524 31.5412 65.2433 31.6 65.0257 31.7172C64.8078 31.8348 64.6553 32.0429 64.5683 32.3424L63.3323 31.8692C63.4696 31.3267 63.7274 30.8857 64.1058 30.5458C64.4846 30.2063 65.0003 30.0358 65.6536 30.0358C66.1324 30.0358 66.5579 30.125 66.9298 30.3032C67.3017 30.481 67.5832 30.7888 67.7741 31.2256C67.8813 31.4682 67.9448 31.7112 67.965 31.9538C67.9851 32.1968 67.995 32.4678 67.995 32.7669V36.7727H66.799V35.4253L66.9698 35.7046C66.7051 36.1456 66.4195 36.4644 66.1133 36.6606C65.8068 36.8568 65.4189 36.9551 64.9501 36.9551V36.9555ZM59.8656 35.4869C60.1604 35.4869 60.4015 35.3978 60.5889 35.22C60.7764 35.0417 60.9156 34.8024 61.0061 34.5006C61.0966 34.1992 61.1419 33.8643 61.1419 33.4959C61.1419 33.1316 61.0947 32.799 61.0012 32.4977C60.9076 32.1963 60.7627 31.9556 60.5669 31.7755C60.371 31.5954 60.1204 31.5054 59.8158 31.5054C59.531 31.5054 59.3009 31.5881 59.1252 31.7539C58.9492 31.9198 58.821 32.1522 58.7408 32.4517C58.6605 32.7513 58.6206 33.099 58.6206 33.4959C58.6206 33.8924 58.6605 34.2401 58.7408 34.5396C58.8214 34.8391 58.9526 35.0716 59.1351 35.2379C59.3177 35.4037 59.5614 35.4864 59.866 35.4864L59.8656 35.4869ZM60.0866 36.9555C59.5473 36.9555 59.0967 36.8039 58.7351 36.5003C58.373 36.1971 58.1011 35.7845 57.9186 35.2622C57.736 34.7404 57.6448 34.1515 57.6448 33.4964C57.6448 32.8408 57.7353 32.2519 57.9163 31.73C58.0969 31.2082 58.3635 30.7956 58.7149 30.492C59.0667 30.1888 59.5006 30.0368 60.0162 30.0368C60.5353 30.0368 60.9875 30.1865 61.3727 30.486C61.7579 30.7855 62.0568 31.1953 62.2694 31.7149C62.482 32.2349 62.5885 32.8284 62.5885 33.4964C62.5885 34.1519 62.4835 34.7404 62.2744 35.2622C62.0648 35.7845 61.7724 36.1966 61.3974 36.5003C61.0225 36.8039 60.5851 36.9555 60.0862 36.9555H60.0866ZM57.4136 36.7736V28.0338H58.7902V32.2822H58.6194V36.7736H57.4136ZM53.8164 35.4138C54.2553 35.4138 54.5827 35.2347 54.7987 34.8768C55.0147 34.5185 55.1227 34.0587 55.1227 33.4959C55.1227 32.913 55.0128 32.4481 54.7934 32.0998C54.574 31.7521 54.2485 31.5775 53.8161 31.5775C53.5179 31.5775 53.2734 31.6588 53.0825 31.8205C52.8916 31.9822 52.7501 32.2069 52.6577 32.4945C52.5657 32.7816 52.5197 33.1155 52.5197 33.4959C52.5197 34.0825 52.6292 34.5488 52.8486 34.8947C53.068 35.2406 53.3905 35.4134 53.8157 35.4134L53.8164 35.4138ZM53.8164 36.9555C53.2707 36.9555 52.7916 36.8076 52.3797 36.5122C51.9675 36.2173 51.6469 35.8094 51.4176 35.2893C51.1879 34.7693 51.0734 34.1717 51.0734 33.4959C51.0734 32.8119 51.1906 32.2101 51.4252 31.6901C51.6595 31.1701 51.9827 30.7644 52.3946 30.4732C52.8064 30.1819 53.2806 30.0363 53.8164 30.0363C54.3622 30.0363 54.8421 30.1838 55.2558 30.4791C55.6692 30.775 55.9917 31.182 56.2229 31.702C56.4541 32.222 56.5697 32.8197 56.5697 33.4954C56.5697 34.1753 56.4534 34.7753 56.2202 35.2948C55.9875 35.8149 55.6643 36.2214 55.2505 36.5145C54.8371 36.8081 54.3587 36.9546 53.8164 36.9546V36.9555ZM48.7522 27.8515H50.1185V36.7736H48.7522V27.8515ZM44.4713 36.9555C44.0157 36.9555 43.5822 36.8577 43.1704 36.6611C42.7585 36.4649 42.3938 36.1746 42.0778 35.7901C41.761 35.4056 41.5116 34.9306 41.329 34.3637C41.1465 33.7977 41.0552 33.144 41.0552 32.4035C41.0552 31.4365 41.2088 30.6142 41.515 29.9362C41.8211 29.2586 42.2333 28.7418 42.7509 28.3857C43.2685 28.0297 43.8419 27.8515 44.4717 27.8515C45.4026 27.8515 46.1347 28.1124 46.6671 28.6343C47.1999 29.1566 47.5566 29.8948 47.7372 30.8494L46.3404 31.092C46.2096 30.582 45.9963 30.1746 45.7 29.8691C45.4034 29.5636 45.0243 29.4088 44.5618 29.4046C44.1028 29.3968 43.721 29.5158 43.4164 29.763C43.1114 30.0097 42.8829 30.3597 42.7308 30.8131C42.5779 31.2661 42.5018 31.7962 42.5018 32.403C42.5018 33.0099 42.5779 33.5359 42.7308 33.981C42.8829 34.4262 43.1114 34.7721 43.4164 35.0192C43.7214 35.2659 44.1028 35.3936 44.5618 35.4014C44.8733 35.4097 45.1555 35.3449 45.4083 35.2071C45.6612 35.0693 45.8746 34.8529 46.0487 34.5575C46.2229 34.2622 46.3469 33.8836 46.4203 33.4229H45.2749V32.1485H47.8775C47.884 32.2009 47.8893 32.2942 47.8924 32.4278C47.8958 32.5611 47.8977 32.6382 47.8977 32.6585C47.8977 33.4959 47.757 34.2383 47.4756 34.8855C47.1942 35.5328 46.7971 36.04 46.2845 36.4061C45.7723 36.7722 45.1676 36.9555 44.4709 36.9555H44.4713ZM95.6676 24.6353V15.8956H100.39V17.4373H97.0344V19.3065H99.7876V20.8482H97.0344V23.0936H100.39V24.6353H95.6676ZM93.1653 24.6353L91.7385 21.0788L93.1452 20.7513L94.7127 24.6358H93.1649L93.1653 24.6353ZM90.4524 20.132H92.0804C92.1507 20.132 92.2275 20.1279 92.3116 20.1201C92.3952 20.1118 92.4724 20.0957 92.5428 20.0714C92.7269 20.0107 92.8695 19.9083 92.9699 19.7649C93.0703 19.6212 93.1398 19.4618 93.1783 19.2858C93.2167 19.1099 93.2361 18.9427 93.2361 18.7846C93.2361 18.6271 93.2167 18.4603 93.1783 18.2844C93.1395 18.1084 93.0703 17.9486 92.9699 17.8048C92.8695 17.6614 92.7269 17.559 92.5428 17.4984C92.4724 17.474 92.3952 17.4579 92.3116 17.4497C92.2279 17.4414 92.1507 17.4377 92.0804 17.4377H90.4524V20.1325V20.132ZM89.086 24.6353V15.8956H92.1408C92.2112 15.8956 92.3059 15.8988 92.4245 15.9043C92.5436 15.9107 92.6497 15.9236 92.7436 15.9438C93.176 16.0251 93.53 16.1969 93.8061 16.4597C94.0826 16.7229 94.286 17.0537 94.4165 17.452C94.5469 17.8507 94.6123 18.2949 94.6123 18.7842C94.6123 19.5169 94.4617 20.143 94.1602 20.6626C93.8586 21.1826 93.3867 21.5033 92.7432 21.6245L92.1404 21.6732H90.4524V24.6353H89.086ZM83.1977 21.2731H87.0161V22.8148H83.1977V21.2731ZM81.8712 24.6353L84.0818 15.8956H86.1217L88.3323 24.6353H86.9256L84.9561 16.9274H85.2174L83.2779 24.6353H81.8712ZM74.8071 24.6353L72.687 15.8956H74.1241L75.4805 21.9038L76.837 15.9075L78.2741 15.8956L79.6306 21.9038L80.9867 15.8956H82.4238L80.3037 24.6353H78.9571L77.5554 18.7359L76.1536 24.6353H74.8071ZM70.7874 24.6353L69.3606 21.0788L70.7673 20.7513L72.3348 24.6358H70.787L70.7874 24.6353ZM68.0745 20.132H69.7025C69.7728 20.132 69.8496 20.1279 69.9337 20.1201C70.0174 20.1118 70.0946 20.0957 70.1649 20.0714C70.349 20.0107 70.4916 19.9083 70.592 19.7649C70.6924 19.6212 70.762 19.4618 70.8004 19.2858C70.8388 19.1099 70.8582 18.9427 70.8582 18.7846C70.8582 18.6271 70.8388 18.4603 70.8004 18.2844C70.7616 18.1084 70.6924 17.9486 70.592 17.8048C70.4916 17.6614 70.349 17.559 70.1649 17.4984C70.0946 17.474 70.0174 17.4579 69.9337 17.4497C69.85 17.4414 69.7728 17.4377 69.7025 17.4377H68.0745V20.1325V20.132ZM66.7081 24.6353V15.8956H69.7629C69.8333 15.8956 69.928 15.8988 70.047 15.9043C70.1657 15.9107 70.2722 15.9236 70.3657 15.9438C70.7981 16.0251 71.1521 16.1969 71.4282 16.4597C71.7047 16.7229 71.9081 17.0537 72.0386 17.452C72.169 17.8507 72.2344 18.2949 72.2344 18.7842C72.2344 19.5169 72.0838 20.143 71.7823 20.6626C71.4807 21.1826 71.0088 21.5033 70.3653 21.6245L69.7626 21.6732H68.0745V24.6353H66.7081ZM60.9304 24.6353V15.8956H65.6532V17.4373H62.2972V19.3065H65.0505V20.8482H62.2972V23.0936H65.6532V24.6353H60.9304ZM56.067 23.0817H57.7448C57.9292 23.0817 58.0931 23.0339 58.2373 22.9388C58.3814 22.8437 58.4943 22.7105 58.5765 22.5382C58.6582 22.3664 58.6997 22.1629 58.6997 21.9282C58.6997 21.7215 58.6647 21.5377 58.594 21.376C58.5236 21.2138 58.4175 21.0857 58.2753 20.9906C58.1327 20.8955 57.9562 20.8477 57.7452 20.8477H56.0674V23.0812L56.067 23.0817ZM56.067 19.3065H57.5539C57.7079 19.3065 57.8452 19.2743 57.9657 19.2091C58.0863 19.1443 58.1817 19.0442 58.2521 18.9087C58.3224 18.7731 58.3578 18.5981 58.3578 18.3836C58.3578 18.1167 58.289 17.892 58.1517 17.7101C58.0144 17.5282 57.8151 17.4368 57.5539 17.4368H56.067V19.3065ZM54.6805 24.6353V15.8956H57.5744C58.0901 15.8956 58.5073 16.0196 58.8252 16.2686C59.1435 16.5176 59.3762 16.8304 59.5238 17.2062C59.6709 17.5829 59.7447 17.9633 59.7447 18.3473C59.7447 18.837 59.6535 19.2436 59.4709 19.5674C59.288 19.8913 59.0378 20.1077 58.7195 20.217V19.9133C59.172 20.0263 59.5108 20.2795 59.7371 20.6718C59.9634 21.0646 60.0759 21.5033 60.0759 21.9888C60.0759 22.5107 59.9965 22.9701 59.8375 23.3665C59.6782 23.763 59.4363 24.0735 59.1112 24.2981C58.7864 24.5223 58.3776 24.6349 57.8855 24.6349H54.6801L54.6805 24.6353ZM50.2692 24.6353V21.0788L47.7973 15.896H49.3949L50.9628 19.1857L52.5303 15.896H54.1279L51.6561 21.0788V24.6353H50.2695H50.2692ZM44.5618 24.8173C43.8381 24.8173 43.2145 24.6271 42.6901 24.2467C42.166 23.8663 41.7622 23.3344 41.4792 22.6508C41.1963 21.9668 41.0545 21.172 41.0545 20.2652C41.0545 19.3589 41.1963 18.5641 41.4792 17.8801C41.7622 17.1965 42.166 16.6646 42.6901 16.2838C43.2145 15.9034 43.8381 15.7132 44.5618 15.7132C45.3928 15.7132 46.0902 15.9617 46.6545 16.4597C47.2189 16.9572 47.6163 17.6311 47.8475 18.4805L46.4709 18.9417C46.3366 18.4116 46.1107 18 45.7924 17.7065C45.4741 17.4134 45.0638 17.2664 44.5614 17.2664C44.1024 17.2664 43.7199 17.3899 43.4134 17.6366C43.1069 17.8833 42.8768 18.2315 42.7224 18.6804C42.5684 19.1292 42.4916 19.6575 42.4916 20.2643C42.4916 20.8711 42.5687 21.3994 42.7224 21.8487C42.8768 22.298 43.1069 22.6457 43.4134 22.8924C43.7199 23.1391 44.1024 23.2627 44.5614 23.2627C45.0638 23.2627 45.4741 23.1152 45.7924 22.8198C46.1107 22.5245 46.3366 22.1138 46.4709 21.5878L47.8475 22.049C47.6163 22.8989 47.2189 23.5723 46.6545 24.0703C46.0902 24.5678 45.3928 24.8168 44.5618 24.8168V24.8173ZM18.9489 42.1498C23.229 40.191 26.8143 36.8329 29.3287 32.4232C29.3512 32.3842 29.3736 32.3447 29.396 32.3047H8.50204C8.526 32.347 8.54958 32.3893 8.57353 32.4311C11.0884 36.837 14.6718 40.1923 18.9489 42.1493V42.1498ZM35.8579 17.8291C35.8567 17.9541 35.8563 18.0786 35.8541 18.2035C35.8541 18.209 35.8541 18.2145 35.8541 18.2205C35.8461 18.6666 35.5441 19.0226 35.1752 19.0226H4.78817C4.88667 21.172 5.2023 23.2971 5.72976 25.351C6.04882 26.5951 6.45344 27.8285 6.93412 29.0243H30.964C31.4146 27.9034 31.7983 26.749 32.1075 25.584H18.9492C18.5743 25.584 18.2704 25.2169 18.2704 24.764V23.1235C18.2704 22.6705 18.5743 22.303 18.9492 22.303H34.7326C35.1604 22.303 35.4814 22.7748 35.3989 23.2815C35.3989 23.282 35.3989 23.282 35.3989 23.282C35.3764 23.4198 35.3502 23.5585 35.3258 23.6968C35.2966 23.8636 35.2677 24.0308 35.2361 24.1971C35.2049 24.3611 35.1711 24.5242 35.1376 24.6877C35.0999 24.8705 35.0631 25.0538 35.0224 25.2353C35.0083 25.2987 34.9942 25.3621 34.9798 25.4246C34.9121 25.7218 34.8417 26.0176 34.7661 26.3116C34.7661 26.3121 34.7657 26.3125 34.7653 26.3135C34.741 26.4085 34.7155 26.5032 34.6904 26.5978C34.671 26.6713 34.652 26.7444 34.6318 26.8183C34.6033 26.9231 34.5733 27.0273 34.544 27.1316C34.5269 27.1927 34.5097 27.2538 34.4923 27.3149C34.4649 27.4095 34.4364 27.5037 34.4082 27.5979C34.3394 27.8257 34.269 28.0536 34.1956 28.281V28.2851C33.9872 28.931 33.7602 29.5691 33.5149 30.1943C33.2898 30.7699 33.0487 31.3377 32.7988 31.8816C32.4205 32.7048 32.006 33.5134 31.5663 34.2842C28.6347 39.4256 24.4291 43.284 19.4044 45.4431C19.258 45.506 19.1048 45.5382 18.9492 45.5382C18.7937 45.5382 18.6404 45.506 18.4937 45.4431C13.4727 43.2858 9.26907 39.4307 6.33745 34.2939C5.89594 33.5203 5.47915 32.7085 5.09962 31.8821C4.85016 31.3396 4.60944 30.7718 4.38317 30.1948C4.02114 29.2705 3.69752 28.3187 3.42067 27.3659C3.31951 27.0182 3.2233 26.6672 3.13507 26.3222C2.46159 23.6982 2.09499 20.9722 2.04441 18.22C2.04061 18.0005 2.03795 17.7809 2.03795 17.5613L2.03909 11.7336C2.12617 9.89695 2.63918 8.13063 3.5222 6.62523C5.05209 4.01685 7.53801 2.45954 10.1722 2.45954H18.9504C19.3253 2.45954 19.6292 2.82659 19.6292 3.28V4.92C19.6292 5.37295 19.3253 5.74 18.9504 5.74H10.1722C7.31821 5.74 4.938 8.43382 4.75357 11.8732C4.74482 12.0386 4.74064 12.1746 4.74064 12.3014V15.7417H35.1828C35.5578 15.7417 35.862 16.1087 35.862 16.5617V17.5677C35.862 17.655 35.8601 17.7418 35.8594 17.8287L35.8579 17.8291ZM37.8973 16.5621C37.8973 14.7535 36.6789 13.2812 35.1817 13.2812H6.77631V12.3018C6.77631 12.2288 6.77897 12.1429 6.78505 12.0308C6.90028 9.88409 8.38719 8.2009 10.1707 8.2009H18.9489C20.4464 8.2009 21.6649 6.72905 21.6649 4.92045V3.28046C21.6649 1.47141 20.4464 0 18.9489 0H10.1707C6.87708 0 3.76977 1.94503 1.85845 5.20389C0.754105 7.08644 0.112944 9.29608 0.00418258 11.5939L0.000761313 11.6642V11.734L0 17.5618C0 17.7772 0.00228375 18.0106 0.00684718 18.2752C0.0616083 21.2566 0.459004 24.209 1.18839 27.0517C1.28536 27.4298 1.38956 27.8097 1.49794 28.1822C1.79875 29.2168 2.14976 30.2485 2.54145 31.2486C2.78635 31.8738 3.04761 32.4894 3.31799 33.0779C3.72908 33.9732 4.18086 34.8529 4.66002 35.6922C7.83654 41.2576 12.384 45.4316 17.8107 47.763C18.1769 47.9201 18.5598 48 18.9485 48C19.3371 48 19.7197 47.9201 20.0863 47.763C25.5171 45.4298 30.0669 41.2521 33.2434 35.6817C33.7195 34.8465 34.1694 33.9704 34.5797 33.0774C34.7577 32.6901 34.9307 32.2914 35.0977 31.8871C35.1216 31.8293 35.1463 31.7718 35.1699 31.7135C35.1714 31.7098 35.173 31.7062 35.1745 31.7025C35.2357 31.5518 35.2962 31.4007 35.3559 31.2486C35.3597 31.239 35.3631 31.2289 35.3669 31.2192C35.4483 31.0111 35.527 30.8021 35.6046 30.5912C35.6304 30.5219 35.6559 30.4516 35.681 30.3818C35.7453 30.204 35.8084 30.0257 35.8696 29.8466C35.8871 29.7956 35.9054 29.745 35.9225 29.6941C35.9929 29.4864 36.0609 29.2774 36.1279 29.0679C36.1549 28.9834 36.1811 28.8989 36.2077 28.8139C36.2583 28.6517 36.3074 28.4886 36.3556 28.3256C36.3697 28.2778 36.3853 28.23 36.399 28.1822C36.4043 28.1643 36.4093 28.1455 36.4146 28.1276C36.4321 28.0665 36.4492 28.0054 36.4663 27.9438C36.4998 27.8262 36.5332 27.7091 36.5656 27.5905C36.5884 27.5069 36.6101 27.4229 36.6321 27.3393C36.6576 27.2432 36.6838 27.1477 36.7086 27.0517C36.7131 27.0338 36.7173 27.0159 36.7219 26.9979C36.7534 26.8748 36.7842 26.7499 36.815 26.6231C36.8356 26.5399 36.8553 26.4568 36.8747 26.3741C36.8839 26.3355 36.8926 26.2969 36.9017 26.2579C37.0238 25.7337 37.1352 25.2054 37.2353 24.6748C37.2353 24.6739 37.2356 24.6725 37.2356 24.6712C37.63 22.575 37.8502 20.4329 37.8897 18.2756C37.892 18.1668 37.8931 18.0652 37.8943 17.966C37.8947 17.9334 37.895 17.9008 37.8954 17.8686C37.8954 17.8562 37.8958 17.8424 37.8958 17.83C37.8962 17.7423 37.8969 17.655 37.8969 17.5709V16.5631L37.8973 16.5621ZM110.152 43.8968H111.659V44.223H110.152V43.8968ZM110.906 45.4091C110.706 45.4091 110.531 45.3553 110.382 45.2483C110.233 45.1408 110.117 44.9915 110.033 44.799C109.95 44.607 109.909 44.3819 109.909 44.1246C109.909 43.8554 109.95 43.6225 110.031 43.4255C110.113 43.2284 110.227 43.0763 110.374 42.9688C110.521 42.8618 110.693 42.8085 110.89 42.8085C111.095 42.8085 111.27 42.8655 111.414 42.9794C111.559 43.0938 111.667 43.2564 111.739 43.4677C111.812 43.6791 111.843 43.9308 111.833 44.223H111.493V44.0769C111.489 43.7741 111.438 43.5481 111.34 43.3984C111.241 43.2486 111.095 43.1737 110.901 43.1737C110.694 43.1737 110.536 43.2546 110.427 43.4158C110.319 43.5771 110.265 43.8081 110.265 44.109C110.265 44.3998 110.319 44.6249 110.427 44.7843C110.536 44.9442 110.69 45.0237 110.89 45.0237C111.025 45.0237 111.142 44.9865 111.241 44.912C111.341 44.8372 111.419 44.7306 111.475 44.59L111.799 44.7246C111.719 44.9423 111.6 45.1109 111.441 45.2299C111.281 45.3494 111.103 45.4091 110.905 45.4091H110.906ZM109.119 41.9871H109.456V45.3406H109.119V41.9871ZM107.588 45.0691C107.709 45.0691 107.813 45.043 107.902 44.9906C107.991 44.9382 108.062 44.8688 108.116 44.7829C108.17 44.697 108.206 44.6033 108.222 44.5013C108.24 44.4255 108.25 44.341 108.252 44.2482C108.255 44.1554 108.256 44.0833 108.256 44.0314L108.373 44.0929C108.264 44.1127 108.156 44.1311 108.049 44.1476C107.943 44.1642 107.843 44.1816 107.749 44.2C107.656 44.2179 107.571 44.2404 107.495 44.2661C107.44 44.2873 107.388 44.3153 107.339 44.3493C107.291 44.3833 107.252 44.4265 107.222 44.4793C107.193 44.5317 107.178 44.5964 107.178 44.6722C107.178 44.7388 107.192 44.8032 107.22 44.8638C107.248 44.9249 107.293 44.974 107.353 45.0122C107.412 45.0503 107.491 45.0691 107.588 45.0691ZM107.537 45.4091C107.384 45.4091 107.257 45.3751 107.154 45.3076C107.052 45.24 106.974 45.1505 106.922 45.0397C106.87 44.9286 106.844 44.8068 106.844 44.6745C106.844 44.545 106.864 44.4334 106.904 44.3392C106.945 44.245 107.002 44.1655 107.077 44.1021C107.152 44.0383 107.241 43.9882 107.344 43.9515C107.441 43.9198 107.55 43.8917 107.669 43.8683C107.788 43.8444 107.91 43.8228 108.033 43.8031C108.157 43.7833 108.273 43.7645 108.381 43.7461L108.26 43.8306C108.263 43.6129 108.226 43.4517 108.15 43.346C108.075 43.2399 107.944 43.1875 107.758 43.1875C107.634 43.1875 107.526 43.2215 107.434 43.2899C107.342 43.3584 107.276 43.4677 107.239 43.6184L106.919 43.5017C106.969 43.2858 107.064 43.1163 107.205 42.9932C107.346 42.8701 107.531 42.8085 107.762 42.8085C107.947 42.8085 108.106 42.8485 108.239 42.928C108.372 43.0079 108.467 43.1282 108.525 43.2895C108.554 43.3653 108.572 43.448 108.58 43.5371C108.587 43.6258 108.591 43.719 108.591 43.8164V45.3402H108.293V44.7494L108.363 44.8041C108.286 45.0048 108.179 45.156 108.04 45.257C107.901 45.3581 107.734 45.4086 107.538 45.4086L107.537 45.4091ZM105.698 45.4091C105.491 45.4091 105.316 45.3535 105.172 45.2414C105.028 45.1298 104.917 44.9754 104.841 44.7793C104.766 44.5831 104.726 44.3599 104.725 44.1086C104.727 43.8532 104.766 43.6276 104.844 43.4324C104.922 43.2367 105.033 43.0842 105.179 42.9739C105.323 42.8636 105.498 42.8085 105.701 42.8085C105.917 42.8085 106.102 42.8724 106.257 43.0001C106.413 43.1278 106.517 43.3028 106.57 43.5247L106.238 43.6455C106.194 43.5026 106.123 43.3915 106.027 43.3125C105.93 43.2334 105.821 43.1939 105.698 43.1939C105.558 43.1939 105.442 43.233 105.352 43.3115C105.261 43.3896 105.194 43.4981 105.15 43.6354C105.106 43.7732 105.083 43.9308 105.082 44.1086C105.085 44.3824 105.137 44.6033 105.24 44.7715C105.342 44.9396 105.495 45.0237 105.698 45.0237C105.831 45.0237 105.941 44.9869 106.029 44.9134C106.117 44.8395 106.184 44.7329 106.23 44.5932L106.57 44.7003C106.5 44.9299 106.39 45.1059 106.24 45.2276C106.09 45.3489 105.909 45.41 105.698 45.41V45.4091ZM103.605 45.4068C103.362 45.4068 103.163 45.3425 103.007 45.2143C102.852 45.0857 102.756 44.9061 102.722 44.675L103.065 44.6088C103.093 44.7425 103.157 44.8486 103.256 44.9272C103.355 45.0058 103.479 45.0443 103.626 45.0443C103.765 45.0443 103.874 45.0094 103.954 44.9396C104.034 44.8698 104.074 44.7747 104.074 44.6548C104.074 44.5863 104.06 44.5303 104.034 44.4871C104.008 44.4439 103.953 44.403 103.871 44.3654C103.788 44.3272 103.664 44.2808 103.498 44.2262C103.318 44.1683 103.176 44.1086 103.073 44.047C102.97 43.9855 102.896 43.9138 102.852 43.8316C102.808 43.7493 102.787 43.6487 102.787 43.5302C102.787 43.386 102.819 43.2596 102.885 43.1517C102.95 43.0437 103.042 42.9597 103.16 42.8995C103.277 42.8393 103.414 42.8094 103.57 42.8094C103.725 42.8094 103.864 42.8393 103.986 42.8986C104.108 42.9578 104.207 43.0419 104.281 43.1508C104.356 43.2592 104.401 43.386 104.415 43.5307L104.071 43.606C104.054 43.4751 104.002 43.3713 103.912 43.2945C103.823 43.2178 103.709 43.1769 103.57 43.1723C103.438 43.1678 103.331 43.1967 103.249 43.2592C103.166 43.3216 103.125 43.4053 103.125 43.51C103.125 43.5706 103.14 43.6221 103.171 43.6639C103.202 43.7057 103.26 43.7457 103.343 43.7838C103.427 43.8215 103.549 43.8651 103.709 43.9138C103.889 43.9685 104.03 44.0282 104.135 44.0929C104.238 44.1577 104.313 44.2335 104.356 44.3213C104.4 44.4085 104.423 44.5165 104.423 44.6442C104.423 44.8812 104.35 45.0682 104.205 45.2042C104.06 45.3402 103.861 45.4082 103.607 45.4082L103.605 45.4068ZM101.177 41.9871H101.513V45.3406H101.177V41.9871ZM99.6454 45.0691C99.7663 45.0691 99.8709 45.043 99.9599 44.9906C100.048 44.9382 100.12 44.8688 100.174 44.7829C100.228 44.697 100.263 44.6033 100.28 44.5013C100.298 44.4255 100.307 44.341 100.31 44.2482C100.313 44.1554 100.314 44.0833 100.314 44.0314L100.431 44.0929C100.322 44.1127 100.214 44.1311 100.107 44.1476C100.001 44.1642 99.9006 44.1816 99.807 44.2C99.7135 44.2179 99.6286 44.2404 99.553 44.2661C99.4975 44.2873 99.4457 44.3153 99.3971 44.3493C99.3488 44.3833 99.3096 44.4265 99.2799 44.4793C99.2503 44.5317 99.2354 44.5964 99.2354 44.6722C99.2354 44.7388 99.2495 44.8032 99.278 44.8638C99.3062 44.9249 99.3503 44.974 99.4104 45.0122C99.4701 45.0503 99.5484 45.0691 99.6454 45.0691ZM99.5944 45.4091C99.4419 45.4091 99.3145 45.3751 99.2122 45.3076C99.1096 45.24 99.032 45.1505 98.9799 45.0397C98.9278 44.9286 98.9016 44.8068 98.9016 44.6745C98.9016 44.545 98.9217 44.4334 98.962 44.3392C99.0023 44.245 99.0597 44.1655 99.135 44.1021C99.2096 44.0383 99.299 43.9882 99.402 43.9515C99.499 43.9198 99.6073 43.8917 99.7268 43.8683C99.8462 43.8444 99.9679 43.8228 100.091 43.8031C100.215 43.7833 100.33 43.7645 100.438 43.7461L100.318 43.8306C100.32 43.6129 100.284 43.4517 100.208 43.346C100.133 43.2399 100.002 43.1875 99.8158 43.1875C99.6922 43.1875 99.5842 43.2215 99.4917 43.2899C99.3993 43.3584 99.3339 43.4677 99.2963 43.6184L98.9772 43.5017C99.0263 43.2858 99.1214 43.1163 99.2624 42.9932C99.4035 42.8701 99.5891 42.8085 99.8196 42.8085C100.004 42.8085 100.163 42.8485 100.296 42.928C100.43 43.0079 100.525 43.1282 100.582 43.2895C100.612 43.3653 100.63 43.448 100.638 43.5371C100.645 43.6258 100.649 43.719 100.649 43.8164V45.3402H100.351V44.7494L100.421 44.8041C100.344 45.0048 100.236 45.156 100.098 45.257C99.9591 45.3581 99.7918 45.4086 99.5956 45.4086L99.5944 45.4091ZM97.6439 45.0374C97.7774 45.0374 97.8885 44.9966 97.9771 44.9143C98.0661 44.8321 98.1322 44.7209 98.1764 44.5804C98.2205 44.4398 98.2425 44.2818 98.2425 44.1072C98.2425 43.9335 98.2205 43.7774 98.1764 43.6372C98.1322 43.4971 98.0657 43.3864 97.9759 43.3042C97.8866 43.222 97.7729 43.1811 97.6341 43.1811C97.5021 43.1811 97.3926 43.2201 97.3055 43.2987C97.2188 43.3768 97.1538 43.4861 97.1112 43.6258C97.0682 43.7659 97.0469 43.9262 97.0469 44.1072C97.0469 44.2864 97.0678 44.4467 97.11 44.5872C97.1522 44.7278 97.2173 44.8381 97.3055 44.918C97.3937 44.9979 97.5063 45.0379 97.6436 45.0379L97.6439 45.0374ZM97.6854 45.4091C97.4941 45.4091 97.3329 45.3517 97.2021 45.2368C97.0712 45.122 96.972 44.9667 96.9047 44.7705C96.8374 44.5744 96.8039 44.3534 96.8039 44.1067C96.8039 43.8587 96.8374 43.6372 96.9047 43.4415C96.972 43.2463 97.0716 43.092 97.2032 42.9785C97.3348 42.865 97.4964 42.8085 97.6877 42.8085C97.8763 42.8085 98.0394 42.865 98.176 42.9785C98.3125 43.0915 98.4171 43.2463 98.4901 43.4425C98.5631 43.6386 98.5996 43.86 98.5996 44.1063C98.5996 44.3525 98.5631 44.5744 98.4901 44.7715C98.4171 44.9681 98.3125 45.1238 98.176 45.2377C98.0394 45.3517 97.8759 45.4086 97.6858 45.4086L97.6854 45.4091ZM96.7468 45.3406V42.0556H97.0849V43.527H97.0469V45.3406H96.7468ZM95.3497 45.0237C95.56 45.0237 95.7167 44.9387 95.8209 44.7682C95.9247 44.5983 95.9768 44.3773 95.9768 44.1067C95.9768 43.8297 95.9243 43.6088 95.8201 43.4429C95.7155 43.2771 95.5588 43.1944 95.3501 43.1944C95.2078 43.1944 95.0907 43.233 94.9987 43.3106C94.9066 43.3883 94.8382 43.4953 94.7929 43.6322C94.7477 43.7691 94.7253 43.9271 94.7253 44.1067C94.7253 44.3833 94.7781 44.6056 94.8838 44.7728C94.9896 44.9401 95.1451 45.0237 95.3504 45.0237H95.3497ZM95.3497 45.4091C95.147 45.4091 94.9721 45.3535 94.8256 45.2423C94.6789 45.1316 94.5659 44.9782 94.4868 44.7825C94.4073 44.5872 94.3678 44.3617 94.3678 44.1063C94.3678 43.8495 94.4081 43.623 94.4887 43.4278C94.5693 43.2325 94.6834 43.0805 94.8306 42.9716C94.9778 42.8627 95.1512 42.8085 95.3501 42.8085C95.5539 42.8085 95.7296 42.8641 95.8768 42.9753C96.0239 43.086 96.1369 43.239 96.2156 43.4337C96.2943 43.6285 96.3335 43.8527 96.3335 44.1067C96.3335 44.364 96.2939 44.59 96.2145 44.7852C96.135 44.9809 96.0216 45.1335 95.8745 45.2437C95.7273 45.354 95.5524 45.4091 95.3497 45.4091ZM93.5783 41.9871H93.9145V45.3406H93.5783V41.9871ZM92.1165 45.037C92.2538 45.037 92.3663 44.997 92.4546 44.9171C92.5428 44.8371 92.6078 44.7269 92.65 44.5863C92.6922 44.4458 92.7132 44.2854 92.7132 44.1063C92.7132 43.9253 92.6919 43.765 92.6489 43.6248C92.6059 43.4852 92.5417 43.3759 92.4553 43.2978C92.369 43.2192 92.2595 43.1802 92.126 43.1802C91.9876 43.1802 91.8735 43.221 91.7834 43.3033C91.6932 43.3855 91.6267 43.4962 91.583 43.6363C91.5396 43.7764 91.5179 43.9331 91.5179 44.1063C91.5179 44.2813 91.54 44.4389 91.5837 44.5794C91.6278 44.72 91.694 44.8316 91.783 44.9134C91.8716 44.9956 91.983 45.0365 92.1161 45.0365L92.1165 45.037ZM92.0998 46.5033C91.9925 46.5033 91.8883 46.4836 91.786 46.4441C91.6841 46.4046 91.5906 46.3448 91.5058 46.2649C91.4206 46.185 91.3498 46.0844 91.2932 45.9631L91.6008 45.7669C91.651 45.8873 91.7229 45.9746 91.8149 46.0288C91.9073 46.0835 92.0028 46.111 92.1009 46.111C92.2306 46.111 92.3382 46.0825 92.423 46.0256C92.5082 45.9686 92.5713 45.8841 92.6128 45.7711C92.6542 45.6585 92.6744 45.5184 92.6732 45.3517V44.6787H92.7128V42.8765H93.0113V45.3558C93.0113 45.4242 93.0098 45.4895 93.0067 45.551C93.0033 45.6126 92.9969 45.6737 92.9866 45.7348C92.9604 45.9094 92.9079 46.0536 92.8299 46.1671C92.7516 46.2801 92.6508 46.3646 92.5276 46.4202C92.404 46.4758 92.261 46.5033 92.099 46.5033H92.0998ZM92.075 45.4086C91.8853 45.4086 91.7221 45.3517 91.586 45.2377C91.4499 45.1233 91.3453 44.9681 91.2715 44.7715C91.1977 44.5744 91.1608 44.353 91.1608 44.1063C91.1608 43.86 91.1977 43.6386 91.2715 43.4425C91.3449 43.2463 91.4499 43.0915 91.586 42.9785C91.7221 42.865 91.8841 42.8085 92.0731 42.8085C92.2659 42.8085 92.4276 42.865 92.5584 42.9785C92.6892 43.0915 92.7885 43.2463 92.8558 43.4415C92.9231 43.6372 92.9566 43.8587 92.9566 44.1067C92.9566 44.353 92.9231 44.5744 92.8558 44.7705C92.7885 44.9667 92.6892 45.1224 92.5584 45.2368C92.4276 45.3517 92.2663 45.4091 92.075 45.4091V45.4086ZM89.0255 45.0687C89.1461 45.0687 89.2511 45.0425 89.34 44.9901C89.4286 44.9378 89.5001 44.8684 89.5541 44.7825C89.6081 44.6966 89.6435 44.6029 89.6602 44.5009C89.6777 44.4251 89.6876 44.3406 89.6903 44.2478C89.6929 44.155 89.6941 44.0829 89.6941 44.0309L89.8112 44.0925C89.7017 44.1122 89.5937 44.1306 89.4872 44.1472C89.3807 44.1637 89.2807 44.1812 89.1872 44.1995C89.0936 44.2174 89.0084 44.24 88.9331 44.2657C88.878 44.2868 88.8259 44.3148 88.7772 44.3488C88.7289 44.3828 88.6897 44.426 88.6601 44.4788C88.6304 44.5312 88.6156 44.596 88.6156 44.6718C88.6156 44.7384 88.6297 44.8027 88.6582 44.8633C88.6863 44.9244 88.7304 44.9736 88.7901 45.0117C88.8498 45.0498 88.9282 45.0687 89.0255 45.0687ZM88.9746 45.4086C88.8221 45.4086 88.6947 45.3746 88.5924 45.3071C88.4897 45.2396 88.4125 45.15 88.36 45.0393C88.3079 44.9281 88.2817 44.8064 88.2817 44.6741C88.2817 44.5445 88.3019 44.4329 88.3422 44.3387C88.3825 44.2446 88.4399 44.1651 88.5152 44.1017C88.5897 44.0378 88.6791 43.9878 88.7822 43.951C88.8791 43.9193 88.9875 43.8913 89.1069 43.8679C89.2263 43.844 89.348 43.8224 89.4712 43.8026C89.5944 43.7829 89.7104 43.764 89.8184 43.7457L89.6979 43.8302C89.7005 43.6124 89.664 43.4512 89.5884 43.3455C89.5131 43.2394 89.3822 43.187 89.1959 43.187C89.0727 43.187 88.9643 43.221 88.8719 43.2895C88.7795 43.3579 88.7141 43.4673 88.6764 43.618L88.3574 43.5013C88.4064 43.2854 88.5015 43.1158 88.6426 42.9927C88.7837 42.8696 88.9693 42.8081 89.1997 42.8081C89.3845 42.8081 89.5435 42.848 89.6766 42.9275C89.8093 43.0074 89.9048 43.1278 89.9626 43.289C89.9918 43.3648 90.0097 43.4475 90.0173 43.5366C90.0249 43.6253 90.0287 43.7186 90.0287 43.8159V45.3397H89.7306V44.749L89.8006 44.8036C89.7237 45.0044 89.6161 45.1555 89.4773 45.2566C89.3389 45.3576 89.1716 45.4082 88.975 45.4082L88.9746 45.4086ZM86.8085 45.3402V44.1058C86.8085 43.9905 86.7997 43.8784 86.7822 43.7705C86.7647 43.6625 86.7351 43.5651 86.6936 43.4783C86.6518 43.3919 86.5955 43.3235 86.5244 43.2734C86.4533 43.2233 86.3635 43.1981 86.2555 43.1981C86.1711 43.1981 86.0947 43.2155 86.0258 43.2504C85.9574 43.2858 85.8984 43.3377 85.8494 43.4066C85.8 43.476 85.7619 43.5633 85.7349 43.6689C85.7079 43.7746 85.6942 43.8991 85.6942 44.042L85.4733 43.9597C85.4733 43.7222 85.509 43.5178 85.5802 43.346C85.6513 43.1742 85.7513 43.0423 85.8802 42.9505C86.0091 42.8581 86.1612 42.8122 86.3362 42.8122C86.4681 42.8122 86.5811 42.8375 86.6742 42.8875C86.7674 42.9376 86.845 43.0047 86.9066 43.0883C86.9682 43.1719 87.0165 43.2647 87.0519 43.3667C87.0872 43.4686 87.1119 43.5729 87.1268 43.6795C87.1412 43.7861 87.1485 43.8858 87.1485 43.9786V45.3402H86.8085ZM85.3543 45.3402V42.8765H85.6566V43.5357H85.6946V45.3402H85.3546H85.3543ZM83.9571 45.0232C84.1674 45.0232 84.3245 44.9382 84.4283 44.7678C84.5321 44.5978 84.5842 44.3769 84.5842 44.1063C84.5842 43.8293 84.5317 43.6083 84.4275 43.4425C84.3229 43.2766 84.1663 43.1939 83.9575 43.1939C83.8152 43.1939 83.6981 43.2325 83.6061 43.3102C83.5141 43.3878 83.4456 43.4948 83.4004 43.6317C83.3551 43.7686 83.3323 43.9267 83.3323 44.1063C83.3323 44.3828 83.3851 44.6052 83.4909 44.7724C83.5966 44.9396 83.7521 45.0232 83.9575 45.0232H83.9571ZM83.9571 45.4086C83.7544 45.4086 83.5798 45.353 83.4331 45.2419C83.2863 45.1312 83.1733 44.9777 83.0942 44.782C83.0148 44.5868 82.9752 44.3612 82.9752 44.1058C82.9752 43.849 83.0155 43.6225 83.0961 43.4273C83.1768 43.2321 83.2908 43.08 83.438 42.9711C83.5852 42.8623 83.7582 42.8081 83.9571 42.8081C84.1609 42.8081 84.3366 42.8636 84.4838 42.9748C84.631 43.0855 84.7439 43.2385 84.8226 43.4333C84.9013 43.6281 84.9405 43.8522 84.9405 44.1063C84.9405 44.3635 84.901 44.5895 84.8215 44.7848C84.742 44.9805 84.6287 45.133 84.4815 45.2432C84.3343 45.3535 84.159 45.4086 83.9567 45.4086H83.9571ZM80.5847 46.4349L80.9795 45.1394L80.9852 45.5226L80.0938 42.8765H80.4471L81.1457 45.0048H81.0247L81.6796 42.8765H82.0215L80.9114 46.4349H80.5847ZM79.9428 45.3402C79.8219 45.3705 79.7028 45.3829 79.585 45.3778C79.4671 45.3723 79.3621 45.3434 79.2697 45.291C79.1773 45.2387 79.1077 45.1564 79.0609 45.0439C79.0206 44.9465 78.9989 44.8482 78.9959 44.7485C78.9929 44.6488 78.9913 44.5363 78.9913 44.4099V42.1925H79.3275V44.3915C79.3275 44.4917 79.3283 44.5781 79.3302 44.6493C79.3325 44.7209 79.345 44.782 79.369 44.8339C79.4142 44.9313 79.4865 44.9883 79.585 45.0053C79.6838 45.0218 79.8032 45.0172 79.9428 44.9915V45.3406V45.3402ZM78.5776 42.8765H79.9428V43.2119H78.5776V42.8765ZM77.9018 42.8765H78.238V45.3402H77.9018V42.8765ZM77.9018 42.0211H78.238V42.441H77.9018V42.0211ZM76.4533 45.3402V42.8765H76.7537V43.4719L76.7043 43.3942C76.7283 43.3184 76.7594 43.2486 76.7978 43.1843C76.8363 43.1204 76.8792 43.0681 76.9271 43.0272C76.98 42.9753 77.0397 42.9362 77.1066 42.9096C77.1736 42.8829 77.2413 42.8673 77.3105 42.8618C77.3797 42.8563 77.4447 42.8613 77.5052 42.8765V43.2573C77.4344 43.2362 77.3572 43.2307 77.2728 43.2413C77.1888 43.2523 77.1104 43.2886 77.0389 43.3506C76.9735 43.4089 76.923 43.4774 76.8868 43.5573C76.8511 43.6372 76.826 43.7236 76.8123 43.8173C76.7982 43.911 76.7914 44.0066 76.7914 44.104V45.3402H76.4533ZM75.6243 45.3402V44.681H75.5866V42.8765H75.9247V45.3402H75.6243ZM74.9443 45.404C74.8124 45.404 74.6994 45.3788 74.6063 45.3287C74.5131 45.2786 74.4355 45.2116 74.3739 45.1279C74.3123 45.0443 74.2636 44.9515 74.2286 44.8496C74.1933 44.7476 74.1685 44.6433 74.1541 44.5372C74.1396 44.4306 74.1324 44.3309 74.1324 44.2381V42.8765H74.472V44.1104C74.472 44.2262 74.4808 44.3378 74.4983 44.4458C74.5158 44.5537 74.5458 44.6511 74.588 44.7375C74.6302 44.8238 74.6869 44.8923 74.758 44.9428C74.8291 44.9929 74.9185 45.0182 75.0253 45.0182C75.1098 45.0182 75.1862 45.0007 75.255 44.9658C75.3235 44.9309 75.3824 44.879 75.4315 44.8096C75.4805 44.7402 75.519 44.6529 75.546 44.5459C75.5729 44.4398 75.5866 44.3153 75.5866 44.1743L75.8076 44.2565C75.8076 44.4935 75.7722 44.698 75.7007 44.8702C75.6296 45.0416 75.5296 45.1739 75.4007 45.2658C75.2718 45.3576 75.1196 45.404 74.9447 45.404H74.9443ZM72.9106 45.4086C72.7041 45.4086 72.5288 45.353 72.3846 45.2409C72.2405 45.1293 72.1302 44.975 72.0538 44.7788C71.9777 44.5826 71.9389 44.3594 71.9378 44.1081C71.9389 43.8527 71.9789 43.6271 72.0568 43.4319C72.1348 43.2362 72.2458 43.0837 72.3911 42.9734C72.536 42.8632 72.7102 42.8081 72.914 42.8081C73.1292 42.8081 73.3148 42.8719 73.47 42.9996C73.6255 43.1273 73.7297 43.3024 73.7826 43.5242L73.4502 43.6451C73.4061 43.5022 73.3357 43.391 73.2395 43.312C73.1429 43.233 73.0334 43.1935 72.9102 43.1935C72.7706 43.1935 72.655 43.2325 72.5645 43.3111C72.474 43.3892 72.4063 43.4976 72.3626 43.6349C72.3185 43.7728 72.296 43.9303 72.2949 44.1081C72.2976 44.3819 72.3496 44.6029 72.4523 44.771C72.5546 44.9391 72.7075 45.0232 72.9102 45.0232C73.0433 45.0232 73.154 44.9865 73.2418 44.913C73.3293 44.839 73.3962 44.7324 73.443 44.5928L73.7829 44.6998C73.7122 44.9295 73.6023 45.1054 73.4521 45.2272C73.3023 45.3484 73.1216 45.4095 72.9102 45.4095L72.9106 45.4086ZM69.9516 43.8963H71.4583V44.2225H69.9516V43.8963ZM70.7049 45.4086C70.5045 45.4086 70.3303 45.3549 70.1809 45.2478C70.0318 45.1404 69.9158 44.991 69.8325 44.7986C69.7496 44.6065 69.7078 44.3814 69.7078 44.1242C69.7078 43.855 69.7489 43.6221 69.8306 43.425C69.9124 43.2279 70.0265 43.0759 70.1733 42.9684C70.3201 42.8613 70.492 42.8081 70.6897 42.8081C70.8947 42.8081 71.0696 42.865 71.2137 42.9789C71.3579 43.0933 71.4662 43.256 71.5385 43.4673C71.6111 43.6786 71.6423 43.9303 71.6321 44.2225H71.2921V44.0764C71.2883 43.7737 71.2373 43.5477 71.1388 43.3979C71.0407 43.2481 70.8947 43.1733 70.7007 43.1733C70.4931 43.1733 70.3349 43.2541 70.2265 43.4154C70.1181 43.5766 70.0641 43.8077 70.0641 44.1086C70.0641 44.3994 70.1181 44.6245 70.2265 44.7839C70.3349 44.9437 70.4889 45.0232 70.6893 45.0232C70.824 45.0232 70.9411 44.986 71.0407 44.9116C71.14 44.8367 71.2179 44.7301 71.2746 44.5895L71.5974 44.7241C71.5183 44.9419 71.3989 45.1105 71.2396 45.2295C71.0803 45.3489 70.9019 45.4086 70.7042 45.4086H70.7049ZM68.5882 45.4063C68.3452 45.4063 68.146 45.342 67.9904 45.2139C67.8349 45.0852 67.7395 44.9056 67.7045 44.6745L68.0482 44.6084C68.076 44.7421 68.1395 44.8482 68.2391 44.9267C68.3384 45.0053 68.462 45.0439 68.6092 45.0439C68.7476 45.0439 68.8567 45.009 68.937 44.9391C69.0168 44.8693 69.0568 44.7742 69.0568 44.6543C69.0568 44.5859 69.0435 44.5298 69.0172 44.4866C68.9906 44.4435 68.9362 44.4026 68.8537 44.3649C68.7712 44.3268 68.6468 44.2804 68.481 44.2257C68.3008 44.1678 68.1593 44.1081 68.0559 44.0466C67.9524 43.985 67.879 43.9133 67.8349 43.8311C67.7908 43.7489 67.7687 43.6483 67.7687 43.5297C67.7687 43.3855 67.8014 43.2592 67.8669 43.1512C67.9323 43.0433 68.0239 42.9592 68.1418 42.899C68.2593 42.8388 68.3962 42.809 68.5525 42.809C68.7073 42.809 68.8461 42.8388 68.9682 42.8981C69.0902 42.9574 69.1887 43.0414 69.2636 43.1503C69.3386 43.2587 69.383 43.3855 69.3967 43.5302L69.053 43.6055C69.0366 43.4746 68.9837 43.3708 68.8944 43.2941C68.805 43.2174 68.6913 43.1765 68.5525 43.1719C68.4205 43.1673 68.3129 43.1962 68.2308 43.2587C68.1483 43.3212 68.1072 43.4048 68.1072 43.5095C68.1072 43.5702 68.1224 43.6216 68.1532 43.6634C68.184 43.7052 68.2414 43.7452 68.3251 43.7833C68.4087 43.821 68.5304 43.8646 68.6905 43.9133C68.8704 43.968 69.0123 44.0277 69.1161 44.0925C69.2203 44.1573 69.2941 44.2331 69.3382 44.3208C69.3823 44.4081 69.4043 44.516 69.4043 44.6437C69.4043 44.8808 69.3321 45.0678 69.1872 45.2037C69.0423 45.3397 68.8427 45.4077 68.5886 45.4077L68.5882 45.4063ZM65.6388 45.037C65.7757 45.037 65.8886 44.997 65.9764 44.9171C66.0647 44.8371 66.1297 44.7269 66.1719 44.5863C66.2141 44.4458 66.2354 44.2854 66.2354 44.1063C66.2354 43.9253 66.2138 43.765 66.1708 43.6248C66.1282 43.4852 66.0635 43.3759 65.9772 43.2978C65.8909 43.2192 65.7814 43.1802 65.6479 43.1802C65.5095 43.1802 65.395 43.221 65.3052 43.3033C65.2151 43.3855 65.1486 43.4962 65.1048 43.6363C65.0615 43.7764 65.0398 43.9331 65.0398 44.1063C65.0398 44.2813 65.0619 44.4389 65.1056 44.5794C65.1497 44.72 65.2159 44.8316 65.3049 44.9134C65.3935 44.9956 65.5049 45.0365 65.638 45.0365L65.6388 45.037ZM65.622 46.5033C65.5148 46.5033 65.4106 46.4836 65.3083 46.4441C65.2064 46.4046 65.1128 46.3448 65.028 46.2649C64.9428 46.185 64.8721 46.0844 64.8154 45.9631L65.1231 45.7669C65.1733 45.8873 65.2448 45.9746 65.3372 46.0288C65.4296 46.0835 65.5251 46.111 65.6232 46.111C65.7525 46.111 65.8601 46.0825 65.9449 46.0256C66.0297 45.9686 66.0928 45.8841 66.1347 45.7711C66.1761 45.6585 66.1963 45.5184 66.1951 45.3517V44.6787H66.235V42.8765H66.5332V45.3558C66.5332 45.4242 66.5317 45.4895 66.5286 45.551C66.5252 45.6126 66.5191 45.6737 66.5088 45.7348C66.4826 45.9094 66.4301 46.0536 66.3522 46.1671C66.2738 46.2801 66.1731 46.3646 66.0499 46.4202C65.9263 46.4758 65.7836 46.5033 65.6213 46.5033H65.622ZM65.5973 45.4086C65.4072 45.4086 65.2444 45.3517 65.1083 45.2377C64.9721 45.1233 64.8675 44.9681 64.7938 44.7715C64.72 44.5744 64.6831 44.353 64.6831 44.1063C64.6831 43.86 64.72 43.6386 64.7938 43.4425C64.8672 43.2463 64.9721 43.0915 65.1083 42.9785C65.2444 42.865 65.4064 42.8085 65.5954 42.8085C65.7878 42.8085 65.9498 42.865 66.0806 42.9785C66.2115 43.0915 66.3107 43.2463 66.378 43.4415C66.4453 43.6372 66.4792 43.8587 66.4792 44.1067C66.4792 44.353 66.4453 44.5744 66.378 44.7705C66.3107 44.9667 66.2115 45.1224 66.0806 45.2368C65.9498 45.3517 65.7886 45.4091 65.5973 45.4091V45.4086ZM63.9659 45.3402V44.1058C63.9659 43.9905 63.9571 43.8784 63.9396 43.7705C63.9221 43.6625 63.8921 43.5651 63.8507 43.4783C63.8092 43.3919 63.7529 43.3235 63.6814 43.2734C63.6103 43.2233 63.5206 43.1981 63.4122 43.1981C63.3281 43.1981 63.2513 43.2155 63.1829 43.2504C63.1144 43.2858 63.0555 43.3377 63.0064 43.4066C62.957 43.476 62.919 43.5633 62.892 43.6689C62.865 43.7746 62.8513 43.8991 62.8513 44.042L62.6303 43.9597C62.6303 43.7222 62.6661 43.5178 62.7372 43.346C62.8083 43.1742 62.9083 43.0423 63.0372 42.9505C63.1661 42.8581 63.3183 42.8122 63.4932 42.8122C63.6255 42.8122 63.7381 42.8375 63.8313 42.8875C63.9244 42.9376 64.002 43.0047 64.0636 43.0883C64.1252 43.1719 64.1735 43.2647 64.2089 43.3667C64.2442 43.4686 64.269 43.5729 64.2834 43.6795C64.2979 43.7861 64.3051 43.8858 64.3051 43.9786V45.3402H63.9651H63.9659ZM62.5121 45.3402V42.8765H62.8144V43.5357H62.852V45.3402H62.5121ZM61.6115 42.8765H61.9477V45.3402H61.6115V42.8765ZM61.6115 42.0211H61.9477V42.441H61.6115V42.0211ZM60.7426 45.3402V44.1058C60.7426 43.9905 60.7338 43.8784 60.7163 43.7705C60.6989 43.6625 60.6692 43.5651 60.6274 43.4783C60.5859 43.3919 60.5296 43.3235 60.4581 43.2734C60.387 43.2233 60.2973 43.1981 60.1889 43.1981C60.1048 43.1981 60.028 43.2155 59.9596 43.2504C59.8911 43.2858 59.8322 43.3377 59.7831 43.4066C59.7337 43.476 59.6957 43.5633 59.6687 43.6689C59.6417 43.7746 59.628 43.8991 59.628 44.042L59.407 43.9597C59.407 43.7222 59.4428 43.5178 59.5139 43.346C59.585 43.1742 59.685 43.0423 59.8139 42.9505C59.9428 42.8581 60.095 42.8122 60.2699 42.8122C60.4019 42.8122 60.5148 42.8375 60.608 42.8875C60.7011 42.9376 60.7787 43.0047 60.8403 43.0883C60.9019 43.1719 60.9502 43.2647 60.9856 43.3667C61.0209 43.4686 61.0457 43.5729 61.0605 43.6795C61.075 43.7861 61.0822 43.8858 61.0822 43.9786V45.3402H60.7422H60.7426ZM59.2884 45.3402V42.8765H59.5907V43.5357H59.6287V45.3402H59.2888H59.2884ZM57.2474 43.8963H58.7545V44.2225H57.2474V43.8963ZM58.0007 45.4086C57.8003 45.4086 57.6258 45.3549 57.4767 45.2478C57.3276 45.1404 57.2116 44.991 57.1284 44.7986C57.0451 44.6065 57.0036 44.3814 57.0036 44.1242C57.0036 43.855 57.0443 43.6221 57.1264 43.425C57.2078 43.2279 57.3223 43.0759 57.4691 42.9684C57.6155 42.8613 57.7878 42.8081 57.9855 42.8081C58.1905 42.8081 58.3654 42.865 58.5095 42.9789C58.6537 43.0933 58.7621 43.256 58.8343 43.4673C58.9069 43.6786 58.9381 43.9303 58.9279 44.2225H58.5879V44.0764C58.5837 43.7737 58.5331 43.5477 58.4346 43.3979C58.3365 43.2481 58.1905 43.1733 57.9965 43.1733C57.7889 43.1733 57.6311 43.2541 57.5223 43.4154C57.4143 43.5766 57.3599 43.8077 57.3599 44.1086C57.3599 44.3994 57.4139 44.6245 57.5223 44.7839C57.6307 44.9437 57.7851 45.0232 57.9851 45.0232C58.1198 45.0232 58.2369 44.986 58.3365 44.9116C58.4358 44.8367 58.5137 44.7301 58.5704 44.5895L58.8933 44.7241C58.8142 44.9419 58.6947 45.1105 58.5354 45.2295C58.3761 45.3489 58.1977 45.4086 58.0003 45.4086H58.0007ZM56.758 45.3402C56.637 45.3705 56.518 45.3829 56.4001 45.3778C56.2822 45.3723 56.1773 45.3434 56.0849 45.291C55.9924 45.2387 55.9229 45.1564 55.8761 45.0439C55.8358 44.9465 55.8141 44.8482 55.8107 44.7485C55.8076 44.6488 55.8057 44.5363 55.8057 44.4099V42.1925H56.1419V44.3915C56.1419 44.4917 56.143 44.5781 56.1449 44.6493C56.1468 44.7209 56.1598 44.782 56.1837 44.8339C56.229 44.9313 56.3012 44.9883 56.4001 45.0053C56.499 45.0218 56.618 45.0172 56.758 44.9915V45.3406V45.3402ZM55.3927 42.8765H56.758V43.2119H55.3927V42.8765ZM54.7885 45.3402V44.1058C54.7885 43.9905 54.7797 43.8784 54.7622 43.7705C54.7447 43.6625 54.7151 43.5651 54.6732 43.4783C54.6318 43.3919 54.5755 43.3235 54.5044 43.2734C54.4333 43.2233 54.3435 43.1981 54.2355 43.1981C54.1511 43.1981 54.0747 43.2155 54.0062 43.2504C53.9378 43.2858 53.8788 43.3377 53.8298 43.4066C53.7807 43.476 53.7423 43.5633 53.7153 43.6689C53.6883 43.7746 53.6746 43.8991 53.6746 44.042L53.4537 43.9597C53.4537 43.7222 53.4894 43.5178 53.5605 43.346C53.6316 43.1742 53.732 43.0423 53.8609 42.9505C53.9899 42.8581 54.1416 42.8122 54.3169 42.8122C54.4489 42.8122 54.5618 42.8375 54.655 42.8875C54.7481 42.9376 54.8257 43.0047 54.887 43.0883C54.9489 43.1719 54.9972 43.2647 55.0326 43.3667C55.0676 43.4686 55.0927 43.5729 55.1071 43.6795C55.1216 43.7861 55.1288 43.8858 55.1288 43.9786V45.3402H54.7888H54.7885ZM53.3342 45.3402V42.0551H53.6366V43.8688H53.6746V45.3402H53.3346H53.3342ZM51.9124 45.037C52.0496 45.037 52.1622 44.997 52.2504 44.9171C52.3387 44.8371 52.4037 44.7269 52.4455 44.5863C52.4877 44.4458 52.509 44.2854 52.509 44.1063C52.509 43.9253 52.4874 43.765 52.4448 43.6248C52.4022 43.4852 52.3375 43.3759 52.2516 43.2978C52.1652 43.2192 52.0553 43.1802 51.9219 43.1802C51.7834 43.1802 51.669 43.221 51.5792 43.3033C51.4891 43.3855 51.4226 43.4962 51.3792 43.6363C51.3358 43.7764 51.3142 43.9331 51.3142 44.1063C51.3142 44.2813 51.3362 44.4389 51.3803 44.5794C51.4245 44.72 51.4906 44.8316 51.5796 44.9134C51.6682 44.9956 51.7796 45.0365 51.9131 45.0365L51.9124 45.037ZM51.8953 46.5033C51.7884 46.5033 51.6838 46.4836 51.5819 46.4441C51.48 46.4046 51.3864 46.3448 51.3016 46.2649C51.2164 46.185 51.1457 46.0844 51.0894 45.9631L51.3971 45.7669C51.4477 45.8873 51.5188 45.9746 51.6115 46.0288C51.704 46.0835 51.7994 46.111 51.8975 46.111C52.0272 46.111 52.1348 46.0825 52.2196 46.0256C52.3044 45.9686 52.3679 45.8841 52.4094 45.7711C52.4508 45.6585 52.471 45.5184 52.4699 45.3517V44.6787H52.5094V42.8765H52.8076V45.3558C52.8076 45.4242 52.806 45.4895 52.803 45.551C52.7999 45.6126 52.7931 45.6737 52.7832 45.7348C52.757 45.9094 52.7045 46.0536 52.6265 46.1671C52.5486 46.2801 52.4478 46.3646 52.3246 46.4202C52.201 46.4758 52.0584 46.5033 51.896 46.5033H51.8953ZM51.8709 45.4086C51.6811 45.4086 51.5176 45.3517 51.3819 45.2377C51.2461 45.1233 51.1411 44.9681 51.0677 44.7715C50.994 44.5744 50.9571 44.353 50.9571 44.1063C50.9571 43.86 50.994 43.6386 51.0677 43.4425C51.1411 43.2463 51.2461 43.0915 51.3819 42.9785C51.518 42.865 51.6804 42.8085 51.869 42.8085C52.0618 42.8085 52.2234 42.865 52.3543 42.9785C52.4851 43.0915 52.5847 43.2463 52.652 43.4415C52.7193 43.6372 52.7528 43.8587 52.7528 44.1067C52.7528 44.353 52.7189 44.5744 52.652 44.7705C52.5847 44.9667 52.4855 45.1224 52.3543 45.2368C52.2234 45.3517 52.0622 45.4091 51.8709 45.4091V45.4086ZM50.2395 45.3402V44.1058C50.2395 43.9905 50.2307 43.8784 50.2129 43.7705C50.1954 43.6625 50.1657 43.5651 50.1243 43.4783C50.0824 43.3919 50.0261 43.3235 49.955 43.2734C49.8839 43.2233 49.7942 43.1981 49.6862 43.1981C49.6017 43.1981 49.5253 43.2155 49.4565 43.2504C49.388 43.2858 49.3291 43.3377 49.28 43.4066C49.231 43.476 49.1929 43.5633 49.1656 43.6689C49.1386 43.7746 49.1252 43.8991 49.1252 44.042L48.9043 43.9597C48.9043 43.7222 48.9397 43.5178 49.0112 43.346C49.0823 43.1742 49.1823 43.0423 49.3116 42.9505C49.4405 42.8581 49.5922 42.8122 49.7675 42.8122C49.8995 42.8122 50.0125 42.8375 50.1052 42.8875C50.1984 42.9376 50.276 43.0047 50.3376 43.0883C50.3992 43.1719 50.4475 43.2647 50.4829 43.3667C50.5182 43.4686 50.5429 43.5729 50.5574 43.6795C50.5718 43.7861 50.5791 43.8858 50.5791 43.9786V45.3402H50.2391H50.2395ZM48.7853 45.3402V42.8765H49.0876V43.5357H49.1256V45.3402H48.7857H48.7853ZM46.7439 43.8963H48.251V44.2225H46.7439V43.8963ZM47.4972 45.4086C47.2968 45.4086 47.1223 45.3549 46.9732 45.2478C46.8241 45.1404 46.7078 44.991 46.6249 44.7986C46.542 44.6065 46.5001 44.3814 46.5001 44.1242C46.5001 43.855 46.5412 43.6221 46.6226 43.425C46.7044 43.2279 46.8188 43.0759 46.9652 42.9684C47.112 42.8613 47.2839 42.8081 47.4817 42.8081C47.6866 42.8081 47.8616 42.865 48.0057 42.9789C48.1498 43.0933 48.2582 43.256 48.3305 43.4673C48.4027 43.6786 48.4343 43.9303 48.424 44.2225H48.084V44.0764C48.0802 43.7737 48.0293 43.5477 47.9312 43.3979C47.833 43.2481 47.6866 43.1733 47.4931 43.1733C47.2854 43.1733 47.1276 43.2541 47.0192 43.4154C46.9108 43.5766 46.8569 43.8077 46.8569 44.1086C46.8569 44.3994 46.9108 44.6245 47.0192 44.7839C47.1276 44.9437 47.2816 45.0232 47.4817 45.0232C47.6163 45.0232 47.7334 44.986 47.833 44.9116C47.9327 44.8367 48.0103 44.7301 48.0673 44.5895L48.3902 44.7241C48.3107 44.9419 48.1913 45.1105 48.0319 45.2295C47.873 45.3489 47.6942 45.4086 47.4969 45.4086H47.4972ZM45.2406 45.3402V42.8765H45.5407V43.4719L45.4916 43.3942C45.5156 43.3184 45.5468 43.2486 45.5852 43.1843C45.6236 43.1204 45.6666 43.0681 45.7145 43.0272C45.7673 42.9753 45.827 42.9362 45.8936 42.9096C45.9605 42.8829 46.0282 42.8673 46.0974 42.8618C46.1666 42.8563 46.2317 42.8613 46.2917 42.8765V43.2573C46.2214 43.2362 46.1438 43.2307 46.0594 43.2413C45.975 43.2523 45.897 43.2886 45.8251 43.3506C45.7601 43.4089 45.7091 43.4774 45.673 43.5573C45.6373 43.6372 45.6122 43.7236 45.5985 43.8173C45.5844 43.911 45.5776 44.0066 45.5776 44.104V45.3402H45.2395H45.2406ZM44.8254 45.3402C44.7044 45.3705 44.585 45.3829 44.4675 45.3778C44.3496 45.3723 44.2447 45.3434 44.1519 45.291C44.0595 45.2387 43.9899 45.1564 43.9431 45.0439C43.9028 44.9465 43.8811 44.8482 43.8777 44.7485C43.8747 44.6488 43.8731 44.5363 43.8731 44.4099V42.1925H44.2093V44.3915C44.2093 44.4917 44.2104 44.5781 44.2123 44.6493C44.2142 44.7209 44.2268 44.782 44.2511 44.8339C44.2964 44.9313 44.3686 44.9883 44.4675 45.0053C44.566 45.0218 44.6854 45.0172 44.8254 44.9915V45.3406V45.3402ZM43.4601 42.8765H44.8254V43.2119H43.4601V42.8765Z" fill="#FF7955"/>
</svg>
