<svg width="42" height="38" viewBox="0 0 42 38" fill="none" xmlns="http://www.w3.org/2000/svg">
<path d="M20.7708 33.6667C20.8931 33.6667 21.0153 33.6362 21.1375 33.5751C21.2597 33.514 21.3514 33.4529 21.4125 33.3918L36.4458 18.3584C36.8125 17.9917 37.0799 17.5792 37.2479 17.1209C37.416 16.6626 37.5 16.2042 37.5 15.7459C37.5 15.257 37.416 14.7911 37.2479 14.348C37.0799 13.9049 36.8125 13.5154 36.4458 13.1792L28.6542 5.38758C28.3181 5.02091 27.9285 4.75355 27.4854 4.5855C27.0424 4.41744 26.5764 4.33341 26.0875 4.33341C25.6292 4.33341 25.1708 4.41744 24.7125 4.5855C24.2542 4.75355 23.8417 5.02091 23.475 5.38758L22.9708 5.89175L26.3625 9.32925C26.8208 9.75703 27.1569 10.2459 27.3708 10.7959C27.5847 11.3459 27.6917 11.9265 27.6917 12.5376C27.6917 13.8209 27.2563 14.898 26.3854 15.7688C25.5146 16.6397 24.4375 17.0751 23.1542 17.0751C22.5431 17.0751 21.9549 16.9681 21.3896 16.7542C20.8243 16.5404 20.3278 16.2195 19.9 15.7917L16.4625 12.4001L8.44167 20.4209C8.35 20.5126 8.28125 20.6119 8.23542 20.7188C8.18958 20.8258 8.16667 20.9404 8.16667 21.0626C8.16667 21.307 8.25834 21.5286 8.44167 21.7272C8.625 21.9258 8.83889 22.0251 9.08333 22.0251C9.20556 22.0251 9.32778 21.9945 9.45 21.9334C9.57222 21.8723 9.66389 21.8112 9.725 21.7501L15.9583 15.5167L18.525 18.0834L12.3375 24.3167C12.2458 24.4084 12.1771 24.5077 12.1313 24.6147C12.0854 24.7216 12.0625 24.8362 12.0625 24.9584C12.0625 25.2029 12.1542 25.4167 12.3375 25.6001C12.5208 25.7834 12.7347 25.8751 12.9792 25.8751C13.1014 25.8751 13.2236 25.8445 13.3458 25.7834C13.4681 25.7223 13.5597 25.6612 13.6208 25.6001L19.8542 19.4126L22.4208 21.9792L16.2333 28.2126C16.1417 28.2737 16.0729 28.3654 16.0271 28.4876C15.9813 28.6098 15.9583 28.732 15.9583 28.8542C15.9583 29.0987 16.05 29.3126 16.2333 29.4959C16.4167 29.6792 16.6306 29.7709 16.875 29.7709C16.9972 29.7709 17.1118 29.748 17.2188 29.7022C17.3257 29.6563 17.425 29.5876 17.5167 29.4959L23.75 23.3084L26.3167 25.8751L20.0833 32.1084C19.9917 32.2001 19.9229 32.2994 19.8771 32.4063C19.8313 32.5133 19.8083 32.6279 19.8083 32.7501C19.8083 32.9945 19.9076 33.2084 20.1063 33.3918C20.3049 33.5751 20.5264 33.6667 20.7708 33.6667ZM20.725 37.3334C19.5944 37.3334 18.5938 36.9591 17.7229 36.2105C16.8521 35.4619 16.3403 34.5223 16.1875 33.3918C15.1486 33.239 14.2778 32.8112 13.575 32.1084C12.8722 31.4056 12.4444 30.5348 12.2917 29.4959C11.2528 29.3431 10.3896 28.9077 9.70208 28.1897C9.01458 27.4716 8.59445 26.6084 8.44167 25.6001C7.28056 25.4473 6.33334 24.9431 5.6 24.0876C4.86667 23.232 4.5 22.2237 4.5 21.0626C4.5 20.4515 4.61459 19.8633 4.84375 19.298C5.07292 18.7327 5.40139 18.2362 5.82917 17.8084L16.4625 7.22091L22.4667 13.2251C22.5278 13.3167 22.6194 13.3855 22.7417 13.4313C22.8639 13.4772 22.9861 13.5001 23.1083 13.5001C23.3833 13.5001 23.6125 13.4161 23.7958 13.248C23.9792 13.0799 24.0708 12.8584 24.0708 12.5834C24.0708 12.4612 24.0479 12.339 24.0021 12.2167C23.9563 12.0945 23.8875 12.0029 23.7958 11.9417L17.2417 5.38758C16.9056 5.02091 16.516 4.75355 16.0729 4.5855C15.6299 4.41744 15.1639 4.33341 14.675 4.33341C14.2167 4.33341 13.7583 4.41744 13.3 4.5855C12.8417 4.75355 12.4292 5.02091 12.0625 5.38758L5.6 11.8959C5.325 12.1709 5.09584 12.4917 4.9125 12.8584C4.72917 13.2251 4.60695 13.5917 4.54584 13.9584C4.48472 14.3251 4.48472 14.6994 4.54584 15.0813C4.60695 15.4633 4.72917 15.8223 4.9125 16.1584L2.25417 18.8167C1.73472 18.114 1.35278 17.3424 1.10834 16.5022C0.863891 15.6619 0.772225 14.814 0.833336 13.9584C0.894447 13.1029 1.10834 12.2702 1.475 11.4605C1.84167 10.6508 2.34584 9.92508 2.9875 9.28341L9.45 2.82091C10.1833 2.11814 11.0007 1.58341 11.9021 1.21675C12.8035 0.850081 13.7278 0.666748 14.675 0.666748C15.6222 0.666748 16.5465 0.850081 17.4479 1.21675C18.3493 1.58341 19.1514 2.11814 19.8542 2.82091L20.3583 3.32508L20.8625 2.82091C21.5958 2.11814 22.4132 1.58341 23.3146 1.21675C24.216 0.850081 25.1403 0.666748 26.0875 0.666748C27.0347 0.666748 27.959 0.850081 28.8604 1.21675C29.7618 1.58341 30.5639 2.11814 31.2667 2.82091L39.0125 10.5667C39.7153 11.2695 40.25 12.0792 40.6167 12.9959C40.9833 13.9126 41.1667 14.8445 41.1667 15.7917C41.1667 16.739 40.9833 17.6633 40.6167 18.5647C40.25 19.4661 39.7153 20.2681 39.0125 20.9709L23.9792 35.9584C23.5514 36.3862 23.0549 36.7223 22.4896 36.9667C21.9243 37.2112 21.3361 37.3334 20.725 37.3334Z" fill="#FF6F0F"/>
</svg>
