<svg width="38" height="38" viewBox="0 0 38 38" fill="none" xmlns="http://www.w3.org/2000/svg">
<path d="M19 37.3334C16.4639 37.3334 14.0806 36.8522 11.85 35.8897C9.61945 34.9272 7.67917 33.6209 6.02917 31.9709C4.37917 30.3209 3.07292 28.3806 2.11042 26.1501C1.14792 23.9195 0.666672 21.5362 0.666672 19.0001C0.666672 16.464 1.14792 14.0806 2.11042 11.8501C3.07292 9.61953 4.37917 7.67925 6.02917 6.02925C7.67917 4.37925 9.61945 3.073 11.85 2.1105C14.0806 1.148 16.4639 0.666748 19 0.666748C21.5361 0.666748 23.9195 1.148 26.15 2.1105C28.3806 3.073 30.3208 4.37925 31.9708 6.02925C33.6208 7.67925 34.9271 9.61953 35.8896 11.8501C36.8521 14.0806 37.3333 16.464 37.3333 19.0001C37.3333 21.5362 36.8521 23.9195 35.8896 26.1501C34.9271 28.3806 33.6208 30.3209 31.9708 31.9709C30.3208 33.6209 28.3806 34.9272 26.15 35.8897C23.9195 36.8522 21.5361 37.3334 19 37.3334ZM17.1667 33.5751V30.0001C16.1583 30.0001 15.2951 29.6411 14.5771 28.923C13.859 28.2049 13.5 27.3417 13.5 26.3334V24.5001L4.70001 15.7001C4.60834 16.2501 4.52431 16.8001 4.44792 17.3501C4.37153 17.9001 4.33334 18.4501 4.33334 19.0001C4.33334 22.6973 5.54792 25.9362 7.97709 28.7167C10.4063 31.4973 13.4694 33.1167 17.1667 33.5751ZM29.8167 28.9001C30.4278 28.2279 30.9778 27.5022 31.4667 26.723C31.9556 25.9438 32.3604 25.1341 32.6813 24.2938C33.0021 23.4536 33.2465 22.5904 33.4146 21.7042C33.5826 20.8181 33.6667 19.9167 33.6667 19.0001C33.6667 16.0056 32.834 13.2709 31.1688 10.7959C29.5035 8.32091 27.2806 6.53341 24.5 5.43341V6.16675C24.5 7.17508 24.141 8.03828 23.4229 8.75633C22.7049 9.47439 21.8417 9.83342 20.8333 9.83342H17.1667V13.5001C17.1667 14.0195 16.991 14.4549 16.6396 14.8063C16.2882 15.1577 15.8528 15.3334 15.3333 15.3334H11.6667V19.0001H22.6667C23.1861 19.0001 23.6215 19.1758 23.9729 19.5272C24.3243 19.8786 24.5 20.314 24.5 20.8334V26.3334H26.3333C27.1278 26.3334 27.8458 26.5702 28.4875 27.0438C29.1292 27.5174 29.5722 28.1362 29.8167 28.9001Z" fill="#FF6F0F"/>
</svg>
