<svg width="34" height="34" viewBox="0 0 34 34" fill="none" xmlns="http://www.w3.org/2000/svg">
<path d="M11.5 22.5V11.5H22.5V22.5H11.5ZM15.1667 18.8333H18.8333V15.1667H15.1667V18.8333ZM11.5 33.5V29.8333H7.83333C6.825 29.8333 5.96181 29.4743 5.24375 28.7563C4.52569 28.0382 4.16667 27.175 4.16667 26.1667V22.5H0.5V18.8333H4.16667V15.1667H0.5V11.5H4.16667V7.83333C4.16667 6.825 4.52569 5.96181 5.24375 5.24375C5.96181 4.52569 6.825 4.16667 7.83333 4.16667H11.5V0.5H15.1667V4.16667H18.8333V0.5H22.5V4.16667H26.1667C27.175 4.16667 28.0382 4.52569 28.7563 5.24375C29.4743 5.96181 29.8333 6.825 29.8333 7.83333V11.5H33.5V15.1667H29.8333V18.8333H33.5V22.5H29.8333V26.1667C29.8333 27.175 29.4743 28.0382 28.7563 28.7563C28.0382 29.4743 27.175 29.8333 26.1667 29.8333H22.5V33.5H18.8333V29.8333H15.1667V33.5H11.5ZM26.1667 26.1667V7.83333H7.83333V26.1667H26.1667Z" fill="#FF6F0F"/>
</svg>
