<svg width="249" height="84" viewBox="0 0 249 84" fill="none" xmlns="http://www.w3.org/2000/svg">
<path d="M93.9817 79.4659C93.5531 79.4659 93.1684 79.3968 92.8251 79.2585C92.4819 79.1202 92.1995 78.9224 91.9771 78.666C91.7548 78.4095 91.6102 78.1049 91.5426 77.7543L92.3153 77.6386C92.4134 78.0003 92.6171 78.2833 92.9266 78.4867C93.236 78.6909 93.6004 78.7922 94.0198 78.7922C94.2911 78.7922 94.5363 78.752 94.7544 78.6708C94.9726 78.5896 95.1467 78.4731 95.2769 78.3211C95.4071 78.1692 95.4722 77.9899 95.4722 77.7825C95.4722 77.6571 95.4486 77.5477 95.4004 77.4545C95.353 77.3612 95.2896 77.2832 95.2118 77.2189C95.1332 77.1554 95.0436 77.1008 94.943 77.0557C94.8424 77.0099 94.7375 76.9713 94.6285 76.94L93.0881 76.5051C92.9198 76.4592 92.7575 76.4005 92.6002 76.3274C92.4438 76.2542 92.3035 76.1626 92.1809 76.0516C92.0575 75.9415 91.9594 75.8072 91.8867 75.6505C91.814 75.4937 91.7776 75.308 91.7776 75.0958C91.7776 74.7581 91.8706 74.4679 92.0566 74.2259C92.2426 73.984 92.4954 73.7991 92.815 73.6729C93.1345 73.5466 93.4939 73.4831 93.8938 73.4831C94.2996 73.4855 94.6623 73.5547 94.9827 73.6889C95.304 73.8232 95.5695 74.0153 95.7808 74.2653C95.9922 74.5153 96.1342 74.8144 96.2069 75.1633L95.4139 75.2952C95.3716 75.0636 95.2786 74.8627 95.1341 74.6922C94.9895 74.5218 94.8103 74.3916 94.5947 74.2991C94.3791 74.2075 94.1432 74.16 93.8853 74.1576C93.6393 74.1544 93.4161 74.193 93.2174 74.271C93.0187 74.3489 92.8606 74.4575 92.7431 74.5941C92.6256 74.7308 92.5673 74.8876 92.5673 75.0636C92.5673 75.2413 92.6205 75.3844 92.727 75.4905C92.8327 75.5966 92.9638 75.6818 93.1193 75.7438C93.2749 75.8065 93.4262 75.8571 93.575 75.8973L94.7249 76.2124C94.8568 76.247 95.0089 76.2952 95.1806 76.3563C95.353 76.4174 95.5204 76.5034 95.6819 76.6136C95.8442 76.7237 95.9787 76.87 96.0852 77.0525C96.1917 77.235 96.245 77.4641 96.245 77.7407C96.245 78.018 96.1867 78.264 96.0708 78.4795C95.9542 78.6949 95.7927 78.8766 95.5855 79.0229C95.3784 79.1693 95.1383 79.2802 94.8635 79.3541C94.5887 79.4289 94.2954 79.4659 93.9817 79.4659ZM239.496 57.2801H247.494V59.4258H239.496V57.2801ZM243.495 64.6722C242.259 64.6722 241.17 64.4189 240.228 63.9124C239.286 63.406 238.549 62.7082 238.016 61.8199C237.483 60.9315 237.217 59.9137 237.217 58.7666C237.217 57.5132 237.477 56.4223 237.999 55.4946C238.52 54.5669 239.239 53.8466 240.155 53.3329C241.071 52.82 242.124 52.5627 243.316 52.5627C244.582 52.5627 245.658 52.8465 246.544 53.4125C247.43 53.9784 248.085 54.7751 248.51 55.8025C248.934 56.8291 249.083 58.0366 248.956 59.4242H245.951V58.3622C245.951 57.1941 245.756 56.3532 245.366 55.8395C244.975 55.3266 244.336 55.0693 243.45 55.0693C242.415 55.0693 241.653 55.3684 241.165 55.9673C240.678 56.5654 240.434 57.4489 240.434 58.617C240.434 59.6862 240.678 60.5127 241.165 61.0971C241.653 61.6808 242.37 61.9726 243.315 61.9726C243.911 61.9726 244.421 61.8488 244.846 61.6012C245.27 61.3536 245.594 60.9958 245.818 60.5288L248.856 61.3576C248.402 62.4059 247.685 63.2203 246.706 63.8007C245.727 64.3811 244.657 64.6722 243.495 64.6722ZM231.074 64.6722C229.824 64.6722 228.751 64.4069 227.857 63.8755C226.963 63.3449 226.278 62.6222 225.802 61.7089C225.325 60.7957 225.087 59.7658 225.087 58.6186C225.087 57.457 225.334 56.4199 225.83 55.5067C226.324 54.5934 227.023 53.8747 227.924 53.3506C228.824 52.8264 229.89 52.5643 231.119 52.5643C232.541 52.5643 233.734 52.9068 234.698 53.5893C235.663 54.2726 236.279 55.206 236.548 56.3878L233.51 57.1531C233.331 56.5582 233.02 56.0943 232.577 55.7615C232.134 55.4287 231.634 55.2631 231.075 55.2631C230.435 55.2631 229.91 55.4102 229.5 55.7036C229.091 55.9979 228.789 56.3974 228.595 56.9039C228.402 57.4103 228.305 57.9819 228.305 58.6195C228.305 59.6179 228.538 60.4267 229.004 61.0457C229.469 61.6655 230.159 61.975 231.075 61.975C231.761 61.975 232.281 61.8263 232.639 61.5288C232.997 61.2314 233.265 60.8061 233.443 60.2546L236.548 60.8704C236.205 62.0884 235.558 63.0265 234.605 63.6849C233.652 64.3434 232.474 64.6722 231.074 64.6722ZM220.328 64.3538V58.937C220.328 58.6749 220.314 58.3405 220.283 57.9329C220.253 57.5261 220.161 57.1169 220.004 56.7061C219.848 56.2953 219.593 55.952 219.239 55.6755C218.886 55.3989 218.385 55.2615 217.737 55.2615C217.476 55.2615 217.197 55.3001 216.899 55.378C216.602 55.456 216.322 55.6064 216.061 55.8298C215.801 56.0533 215.587 56.3805 215.419 56.8122C215.251 57.2439 215.168 57.8171 215.168 58.5326L213.425 57.7464C213.425 56.8396 213.619 55.9906 214.006 55.1972C214.393 54.4045 214.976 53.763 215.754 53.275C216.533 52.7862 217.514 52.5426 218.697 52.5426C219.643 52.5426 220.414 52.6945 221.01 52.9992C221.605 53.3039 222.068 53.689 222.401 54.1569C222.732 54.624 222.968 55.1111 223.11 55.6176C223.251 56.1241 223.336 56.5863 223.367 57.0036C223.396 57.4208 223.412 57.7263 223.412 57.9168V64.353L220.328 64.3538ZM212.085 64.3538V52.8827H214.788V56.6852H215.168V64.3538H212.085ZM201.027 57.2801H209.025V59.4258H201.027V57.2801ZM205.026 64.6722C203.79 64.6722 202.701 64.4189 201.76 63.9124C200.817 63.406 200.08 62.7082 199.548 61.8199C199.015 60.9315 198.75 59.9137 198.75 58.7666C198.75 57.5132 199.01 56.4223 199.531 55.4946C200.053 54.5669 200.771 53.8466 201.687 53.3329C202.602 52.82 203.656 52.5627 204.847 52.5627C206.113 52.5627 207.189 52.8465 208.075 53.4125C208.961 53.9784 209.616 54.7751 210.041 55.8025C210.465 56.8291 210.614 58.0366 210.487 59.4242H207.482V58.3622C207.482 57.1941 207.287 56.3532 206.897 55.8395C206.505 55.3266 205.867 55.0693 204.981 55.0693C203.945 55.0693 203.184 55.3684 202.696 55.9673C202.209 56.5654 201.965 57.4489 201.965 58.617C201.965 59.6862 202.209 60.5127 202.696 61.0971C203.184 61.6808 203.901 61.9726 204.846 61.9726C205.442 61.9726 205.952 61.8488 206.377 61.6012C206.801 61.3536 207.125 60.9958 207.348 60.5288L210.386 61.3576C209.932 62.4059 209.215 63.2203 208.236 63.8007C207.257 64.3811 206.188 64.6722 205.026 64.6722ZM192.806 64.3538V52.9253C192.806 52.6351 192.814 52.3054 192.829 51.9373C192.843 51.5699 192.905 51.1977 193.013 50.823C193.122 50.4476 193.32 50.1075 193.611 49.8028C193.983 49.4065 194.387 49.1356 194.823 48.9901C195.259 48.8454 195.681 48.7666 196.091 48.757C196.501 48.7465 196.851 48.7409 197.141 48.7409H198.638V51.0779H197.253C196.776 51.0779 196.422 51.1928 196.192 51.4236C195.961 51.6535 195.846 51.9276 195.846 52.246V64.3546L192.806 64.3538ZM190.908 52.8827H198.637V55.1127H190.908V52.8827ZM180.386 57.2801H188.383V59.4258H180.386V57.2801ZM184.385 64.6722C183.149 64.6722 182.06 64.4189 181.118 63.9124C180.176 63.406 179.439 62.7082 178.906 61.8199C178.373 60.9315 178.108 59.9137 178.108 58.7666C178.108 57.5132 178.368 56.4223 178.889 55.4946C179.411 54.5669 180.129 53.8466 181.045 53.3329C181.961 52.82 183.014 52.5627 184.205 52.5627C185.471 52.5627 186.547 52.8465 187.434 53.4125C188.32 53.9784 188.975 54.7751 189.4 55.8025C189.824 56.8291 189.973 58.0366 189.846 59.4242H186.841V58.3622C186.841 57.1941 186.646 56.3532 186.256 55.8395C185.864 55.3266 185.226 55.0693 184.34 55.0693C183.304 55.0693 182.543 55.3684 182.055 55.9673C181.568 56.5654 181.324 57.4489 181.324 58.617C181.324 59.6862 181.568 60.5127 182.055 61.0971C182.543 61.6808 183.259 61.9726 184.205 61.9726C184.801 61.9726 185.311 61.8488 185.736 61.6012C186.161 61.3536 186.485 60.9958 186.708 60.5288L189.746 61.3576C189.292 62.4059 188.575 63.2203 187.596 63.8007C186.617 64.3811 185.546 64.6722 184.385 64.6722ZM166.558 61.6341H168.68C168.881 61.6341 169.153 61.6285 169.495 61.6181C169.838 61.6076 170.147 61.5779 170.423 61.528C171.123 61.3938 171.694 61.0819 172.137 60.5931C172.58 60.1043 172.908 59.5166 173.12 58.8301C173.332 58.1435 173.438 57.4353 173.438 56.7061C173.438 55.9416 173.329 55.2156 173.109 54.5291C172.889 53.8425 172.556 53.2613 172.109 52.787C171.662 52.3127 171.101 52.012 170.423 51.8842C170.147 51.8279 169.839 51.7958 169.495 51.7885C169.153 51.7813 168.881 51.7781 168.68 51.7781H166.558V61.6341ZM163.475 64.353V49.0584H168.68C168.806 49.0584 169.067 49.0624 169.462 49.0689C169.856 49.0761 170.236 49.101 170.601 49.1428C171.896 49.2916 172.995 49.72 173.897 50.4283C174.797 51.1365 175.483 52.0353 175.952 53.1263C176.421 54.2164 176.655 55.4102 176.655 56.7053C176.655 58.0012 176.42 59.1942 175.952 60.2852C175.483 61.3753 174.798 62.2749 173.897 62.9823C172.995 63.6906 171.897 64.1191 170.601 64.2678C170.236 64.3104 169.856 64.3353 169.462 64.3425C169.067 64.3498 168.806 64.353 168.68 64.353H163.475ZM153.735 48.7393H156.773V64.353H153.735V48.7393ZM145.046 62.3987C145.604 62.3987 146.075 62.3046 146.458 62.1173C146.842 61.93 147.147 61.7162 147.374 61.475C147.601 61.2338 147.755 61.032 147.837 60.8696C147.994 60.5585 148.085 60.1951 148.111 59.7811C148.137 59.3671 148.15 59.0214 148.15 58.7457L149.044 58.9579C148.142 59.0994 147.413 59.2184 146.854 59.314C146.295 59.4097 145.844 59.4965 145.502 59.5745C145.16 59.6525 144.858 59.7377 144.597 59.8294C144.3 59.9427 144.06 60.0641 143.877 60.1951C143.694 60.3262 143.561 60.4701 143.475 60.6252C143.389 60.7812 143.347 60.9548 143.347 61.1462C143.347 61.4082 143.415 61.6334 143.553 61.8207C143.691 62.0088 143.886 62.1519 144.14 62.2507C144.393 62.3496 144.696 62.3987 145.046 62.3987ZM144.398 64.6722C143.534 64.6722 142.803 64.5146 142.203 64.1994C141.604 63.8843 141.149 63.4631 140.84 62.9357C140.532 62.4083 140.377 61.8255 140.377 61.1888C140.377 60.6574 140.462 60.1726 140.634 59.7329C140.806 59.2947 141.083 58.9064 141.466 58.5704C141.85 58.2344 142.365 57.9522 143.013 57.7255C143.459 57.5703 143.992 57.4321 144.61 57.3115C145.228 57.1917 145.928 57.0767 146.71 56.9666C147.492 56.8573 148.352 56.735 149.291 56.6L148.196 57.1732C148.196 56.4931 148.024 55.9938 147.682 55.6755C147.339 55.3571 146.766 55.1972 145.962 55.1972C145.515 55.1972 145.05 55.3001 144.566 55.5051C144.082 55.7109 143.743 56.075 143.549 56.5992L140.801 55.7712C141.107 54.8217 141.68 54.05 142.521 53.4551C143.363 52.861 144.51 52.5627 145.962 52.5627C147.026 52.5627 147.972 52.7187 148.799 53.0306C149.626 53.3417 150.252 53.8803 150.676 54.6449C150.915 55.0693 151.056 55.4946 151.101 55.9191C151.145 56.3443 151.167 56.8187 151.167 57.342V64.3522H148.509V61.9943L148.888 62.4831C148.3 63.2549 147.665 63.8128 146.984 64.156C146.303 64.4993 145.44 64.6722 144.398 64.6722ZM133.094 62.102C133.749 62.102 134.285 61.9461 134.702 61.635C135.119 61.323 135.428 60.9042 135.63 60.376C135.831 59.8486 135.932 59.2626 135.932 58.6178C135.932 57.9803 135.827 57.3983 135.619 56.8709C135.411 56.3436 135.089 55.9223 134.653 55.6072C134.218 55.292 133.661 55.1344 132.983 55.1344C132.35 55.1344 131.839 55.2792 131.448 55.5694C131.057 55.8596 130.772 56.2664 130.593 56.7905C130.415 57.3147 130.326 57.9233 130.326 58.6178C130.326 59.3116 130.415 59.9202 130.593 60.4443C130.773 60.9685 131.064 61.3753 131.47 61.6663C131.876 61.9565 132.417 62.102 133.094 62.102ZM133.585 64.6722C132.387 64.6722 131.385 64.4069 130.581 63.8755C129.776 63.3449 129.171 62.623 128.765 61.7089C128.36 60.7957 128.157 59.765 128.157 58.6186C128.157 57.4715 128.358 56.4408 128.76 55.5276C129.162 54.6143 129.755 53.8924 130.536 53.361C131.318 52.8304 132.283 52.5643 133.429 52.5643C134.583 52.5643 135.588 52.8264 136.445 53.3506C137.301 53.8747 137.966 54.5918 138.438 55.501C138.911 56.4111 139.148 57.4497 139.148 58.6186C139.148 59.7658 138.914 60.7957 138.449 61.7089C137.983 62.623 137.333 63.3441 136.5 63.8755C135.666 64.4069 134.695 64.6722 133.585 64.6722ZM127.643 64.3538V49.0592H130.703V56.4939H130.324V64.3538H127.643ZM119.645 61.9742C120.621 61.9742 121.349 61.6607 121.829 61.0344C122.31 60.4074 122.55 59.6026 122.55 58.6178C122.55 57.5977 122.305 56.7841 121.817 56.1747C121.33 55.5661 120.606 55.2607 119.645 55.2607C118.982 55.2607 118.438 55.403 118.014 55.6859C117.589 55.9689 117.275 56.362 117.069 56.8653C116.865 57.3677 116.763 57.9522 116.763 58.6178C116.763 59.6444 117.006 60.4604 117.494 61.0658C117.982 61.6711 118.7 61.9742 119.645 61.9742ZM119.645 64.6722C118.432 64.6722 117.367 64.4133 116.451 63.8964C115.535 63.3803 114.822 62.6664 114.312 61.7563C113.802 60.8463 113.547 59.8004 113.547 58.6178C113.547 57.4208 113.808 56.3677 114.329 55.4576C114.85 54.5476 115.569 53.8377 116.484 53.328C117.4 52.8184 118.454 52.5635 119.645 52.5635C120.859 52.5635 121.926 52.8216 122.846 53.3385C123.765 53.8562 124.482 54.5685 124.996 55.4785C125.51 56.3886 125.767 57.4345 125.767 58.617C125.767 59.8068 125.508 60.8568 124.99 61.766C124.472 62.676 123.754 63.3875 122.834 63.9004C121.915 64.4141 120.851 64.6722 119.645 64.6722ZM108.387 48.7401H111.424V64.3538H108.387V48.7401ZM98.8693 64.6722C97.8564 64.6722 96.8926 64.5009 95.977 64.1568C95.0613 63.8136 94.2506 63.3055 93.548 62.6326C92.8437 61.9597 92.2891 61.1285 91.8833 60.1364C91.4775 59.146 91.2746 58.002 91.2746 56.7061C91.2746 55.0139 91.6161 53.5749 92.2967 52.3883C92.9773 51.2025 93.8938 50.2981 95.0444 49.675C96.1951 49.052 97.47 48.7401 98.8701 48.7401C100.94 48.7401 102.567 49.1967 103.751 50.1099C104.935 51.024 105.728 52.3159 106.13 53.9864L103.025 54.4109C102.734 53.5186 102.26 52.8055 101.601 52.2709C100.941 51.7363 100.099 51.4654 99.0705 51.4581C98.05 51.4445 97.2012 51.6527 96.524 52.0852C95.8459 52.5169 95.3378 53.1295 94.9996 53.9229C94.6598 54.7156 94.4907 55.6433 94.4907 56.7053C94.4907 57.7673 94.6598 58.6878 94.9996 59.4668C95.3378 60.2458 95.8459 60.8511 96.524 61.2836C97.202 61.7153 98.05 61.9388 99.0705 61.9525C99.7629 61.967 100.39 61.8536 100.952 61.6124C101.515 61.3713 101.989 60.9926 102.376 60.4757C102.763 59.9588 103.039 59.2963 103.202 58.49H100.656V56.2599H106.442C106.456 56.3516 106.468 56.5148 106.475 56.7487C106.483 56.9819 106.487 57.1169 106.487 57.1523C106.487 58.6178 106.174 59.917 105.548 61.0497C104.923 62.1824 104.04 63.0699 102.9 63.7107C101.762 64.3514 100.418 64.6722 98.8693 64.6722ZM212.69 43.1118V27.8172H223.189V30.5152H215.728V33.7863H221.849V36.4843H215.728V40.4139H223.189V43.1118H212.69ZM207.127 43.1118L203.954 36.8879L207.082 36.3147L210.567 43.1126L207.127 43.1118ZM201.095 35.231H204.714C204.871 35.231 205.042 35.2238 205.228 35.2101C205.414 35.1956 205.586 35.1675 205.742 35.1249C206.152 35.0188 206.469 34.8395 206.692 34.5887C206.915 34.337 207.07 34.0581 207.155 33.7502C207.241 33.4423 207.284 33.1497 207.284 32.8731C207.284 32.5974 207.241 32.3055 207.155 31.9976C207.069 31.6897 206.915 31.41 206.692 31.1583C206.469 30.9075 206.152 30.7282 205.742 30.6221C205.586 30.5795 205.414 30.5514 205.228 30.5369C205.042 30.5224 204.871 30.516 204.714 30.516H201.095V35.231ZM198.057 43.1118V27.8172H204.849C205.005 27.8172 205.216 27.8229 205.48 27.8325C205.744 27.8438 205.98 27.8663 206.189 27.9017C207.15 28.044 207.937 28.3446 208.551 28.8045C209.166 29.2651 209.618 29.8439 209.908 30.5409C210.198 31.2387 210.343 32.0161 210.343 32.8723C210.343 34.1546 210.009 35.2503 209.338 36.1595C208.668 37.0696 207.619 37.6307 206.188 37.8429L204.848 37.9281H201.095V43.1118H198.057ZM184.966 37.2279H193.455V39.9259H184.966V37.2279ZM182.017 43.1118L186.932 27.8172H191.467L196.382 43.1118H193.254L188.876 29.6229H189.456L185.145 43.1118H182.017ZM166.312 43.1118L161.599 27.8172H164.794L167.809 38.3317L170.825 27.8381L174.02 27.8172L177.036 38.3317L180.051 27.8172H183.246L178.532 43.1118H175.539L172.422 32.7879L169.306 43.1118H166.312ZM157.376 43.1118L154.203 36.8879L157.331 36.3147L160.816 43.1126L157.376 43.1118ZM151.344 35.231H154.964C155.12 35.231 155.291 35.2238 155.478 35.2101C155.664 35.1956 155.835 35.1675 155.992 35.1249C156.401 35.0188 156.718 34.8395 156.941 34.5887C157.164 34.337 157.319 34.0581 157.404 33.7502C157.49 33.4423 157.533 33.1497 157.533 32.8731C157.533 32.5974 157.49 32.3055 157.404 31.9976C157.318 31.6897 157.164 31.41 156.941 31.1583C156.718 30.9075 156.401 30.7282 155.992 30.6221C155.835 30.5795 155.664 30.5514 155.478 30.5369C155.292 30.5224 155.12 30.516 154.964 30.516H151.344V35.231ZM148.306 43.1118V27.8172H155.098C155.254 27.8172 155.465 27.8229 155.73 27.8325C155.993 27.8438 156.23 27.8663 156.438 27.9017C157.399 28.044 158.186 28.3446 158.8 28.8045C159.415 29.2651 159.867 29.8439 160.157 30.5409C160.447 31.2387 160.593 32.0161 160.593 32.8723C160.593 34.1546 160.258 35.2503 159.587 36.1595C158.917 37.0696 157.868 37.6307 156.437 37.8429L155.097 37.9281H151.344V43.1118H148.306ZM135.461 43.1118V27.8172H145.961V30.5152H138.5V33.7863H144.621V36.4843H138.5V40.4139H145.961V43.1118H135.461ZM124.649 40.393H128.379C128.789 40.393 129.153 40.3094 129.474 40.1429C129.794 39.9765 130.045 39.7434 130.228 39.4419C130.41 39.1413 130.502 38.7851 130.502 38.3743C130.502 38.0126 130.424 37.691 130.267 37.408C130.111 37.1242 129.875 36.8999 129.558 36.7335C129.241 36.5671 128.849 36.4835 128.38 36.4835H124.65L124.649 40.393ZM124.649 33.7863H127.955C128.297 33.7863 128.602 33.7301 128.87 33.6159C129.138 33.5026 129.351 33.3273 129.507 33.0902C129.663 32.853 129.742 32.5467 129.742 32.1713C129.742 31.7042 129.589 31.3111 129.284 30.9927C128.978 30.6744 128.535 30.5144 127.955 30.5144H124.649V33.7863ZM121.566 43.1118V27.8172H128C129.147 27.8172 130.074 28.0343 130.781 28.47C131.489 28.9058 132.006 29.4532 132.334 30.1108C132.661 30.77 132.825 31.4357 132.825 32.1078C132.825 32.9648 132.622 33.6762 132.217 34.243C131.81 34.8098 131.254 35.1884 130.546 35.3797V34.8483C131.552 35.0461 132.305 35.4891 132.808 36.1756C133.311 36.863 133.562 37.6307 133.562 38.4804C133.562 39.3937 133.385 40.1976 133.032 40.8914C132.677 41.5852 132.14 42.1286 131.417 42.5218C130.695 42.9141 129.786 43.111 128.692 43.111L121.566 43.1118ZM111.759 43.1118V36.8879L106.264 27.818H109.815L113.301 33.5749L116.786 27.818H120.338L114.842 36.8879V43.1118H111.759ZM99.0705 43.4302C97.4616 43.4302 96.0751 43.0974 94.9092 42.4317C93.7441 41.7661 92.8463 40.8351 92.2172 39.6389C91.5882 38.4419 91.2729 37.0511 91.2729 35.4641C91.2729 33.878 91.5882 32.4872 92.2172 31.2902C92.8463 30.094 93.7441 29.163 94.9092 28.4966C96.0751 27.8309 97.4616 27.4981 99.0705 27.4981C100.918 27.4981 102.468 27.933 103.723 28.8045C104.978 29.6751 105.861 30.8545 106.375 32.3409L103.315 33.148C103.016 32.2203 102.514 31.5 101.806 30.9863C101.099 30.4734 100.186 30.2161 99.0697 30.2161C98.0492 30.2161 97.1987 30.4324 96.5172 30.8641C95.8358 31.2958 95.3243 31.9052 94.981 32.6906C94.6386 33.476 94.4678 34.4005 94.4678 35.4625C94.4678 36.5245 94.6395 37.449 94.981 38.2352C95.3243 39.0215 95.8358 39.63 96.5172 40.0618C97.1987 40.4935 98.0492 40.7097 99.0697 40.7097C100.186 40.7097 101.099 40.4516 101.806 39.9347C102.514 39.4178 103.016 38.6991 103.315 37.7786L106.375 38.5858C105.861 40.073 104.978 41.2516 103.723 42.123C102.468 42.9937 100.918 43.4302 99.0705 43.4302ZM42.1274 73.7621C51.643 70.3342 59.6139 64.4575 65.2041 56.7407C65.254 56.6723 65.3038 56.6032 65.3537 56.5333H18.9019C18.9551 56.6072 19.0075 56.6812 19.0608 56.7544C24.6518 64.4648 32.6185 70.3374 42.1274 73.7621ZM79.7197 31.2009C79.7172 31.4196 79.7163 31.6375 79.7113 31.8561C79.7113 31.8658 79.7113 31.8754 79.7113 31.8859C79.6935 32.6665 79.0222 33.2895 78.2021 33.2895H10.6451C10.8641 37.0511 11.5658 40.77 12.7385 44.3643C13.4478 46.5413 14.3474 48.6999 15.416 50.7925H68.8395C69.8414 48.8309 70.6945 46.8107 71.3818 44.7719H42.1282C41.2946 44.7719 40.6191 44.1296 40.6191 43.3369V40.4661C40.6191 39.6735 41.2946 39.0303 42.1282 39.0303H77.218C78.1691 39.0303 78.8827 39.8559 78.6993 40.7427C78.6494 40.9838 78.591 41.2274 78.5369 41.4694C78.4718 41.7612 78.4076 42.0539 78.3374 42.3449C78.2681 42.6319 78.1928 42.9173 78.1184 43.2035C78.0347 43.5234 77.9527 43.8442 77.8622 44.1617C77.831 44.2727 77.7997 44.3836 77.7676 44.493C77.6171 45.0131 77.4606 45.5308 77.2924 46.0453L77.2907 46.0485C77.2366 46.2149 77.18 46.3806 77.1242 46.5462C77.081 46.6748 77.0388 46.8026 76.994 46.932C76.9305 47.1153 76.8638 47.2978 76.7987 47.4803C76.7606 47.5872 76.7226 47.6942 76.6837 47.8011C76.6228 47.9667 76.5594 48.1315 76.4968 48.2963C76.3438 48.695 76.1874 49.0938 76.0242 49.4917V49.499C75.5609 50.6293 75.0562 51.7459 74.5109 52.8401C74.0104 53.8474 73.4743 54.841 72.9189 55.7929C72.0776 57.2335 71.1561 58.6484 70.1787 59.9974C63.6611 68.9948 54.3112 75.747 43.1402 79.5254C42.8147 79.6355 42.474 79.6918 42.1282 79.6918C41.7824 79.6918 41.4417 79.6355 41.1154 79.5254C29.9528 75.7502 20.6071 69.0037 14.0895 60.0142C13.1079 58.6604 12.1813 57.2399 11.3376 55.7937C10.7829 54.8442 10.2478 53.8506 9.74472 52.8409C8.93985 51.2234 8.22037 49.5577 7.60488 47.8903C7.37999 47.2818 7.16609 46.6676 6.96994 46.0638C5.47264 41.4718 4.65762 36.7014 4.54517 31.8851C4.53672 31.5008 4.5308 31.1165 4.5308 30.7323L4.53333 20.5337C4.72694 17.3197 5.86746 14.2286 7.83061 11.5942C11.2319 7.02949 16.7586 4.30419 22.6151 4.30419H42.1308C42.9644 4.30419 43.6399 4.94653 43.6399 5.74V8.60999C43.6399 9.40266 42.9644 10.045 42.1308 10.045H22.6151C16.2699 10.045 10.9782 14.7592 10.5682 20.7781C10.5488 21.0675 10.5395 21.3055 10.5395 21.5274V27.5479H78.219C79.0526 27.5479 79.729 28.1903 79.729 28.9829V30.7435C79.729 30.8963 79.7248 31.0482 79.7231 31.2001L79.7197 31.2009ZM84.2539 28.9837C84.2539 25.8187 81.5451 23.2421 78.2165 23.2421H15.0652V21.5282C15.0652 21.4004 15.0711 21.25 15.0846 21.0539C15.3408 17.2972 18.6465 14.3516 22.6117 14.3516H42.1274C45.4568 14.3516 48.1656 11.7758 48.1656 8.6108V5.74081C48.1656 2.57497 45.4568 0 42.1274 0H22.6117C15.2892 0 8.381 3.4038 4.13174 9.10681C1.67654 12.4013 0.251099 16.2681 0.00929877 20.2893L0.00169256 20.4123V20.5345L0 30.7331C0 31.1101 0.00507728 31.5185 0.0152227 31.9815C0.136968 37.199 1.02046 42.3658 2.64205 47.3404C2.85764 48.0021 3.0893 48.6669 3.33025 49.3189C3.99901 51.1293 4.77937 52.9349 5.65019 54.6851C6.19466 55.7792 6.77548 56.8564 7.3766 57.8863C8.29054 59.4531 9.29494 60.9926 10.3602 62.4614C17.4223 72.2009 27.5323 79.5053 39.5969 83.5852C40.4111 83.8601 41.2625 84 42.1265 84C42.9906 84 43.8411 83.8601 44.6561 83.5852C56.7301 79.5021 66.8451 72.1912 73.9072 62.4429C74.9657 60.9814 75.9659 59.4483 76.8781 57.8855C77.2738 57.2078 77.6585 56.51 78.0296 55.8025C78.0829 55.7012 78.1379 55.6007 78.1903 55.4986C78.1937 55.4922 78.197 55.4858 78.2004 55.4793C78.3365 55.2156 78.471 54.9512 78.6037 54.6851C78.6122 54.6682 78.6198 54.6505 78.6282 54.6336C78.8092 54.2694 78.9842 53.9037 79.1566 53.5347C79.2141 53.4133 79.2708 53.2903 79.3266 53.1681C79.4695 52.8569 79.6098 52.545 79.7459 52.2315C79.7848 52.1423 79.8254 52.0538 79.8634 51.9646C80.0199 51.6012 80.1712 51.2354 80.32 50.8688C80.38 50.7209 80.4384 50.573 80.4975 50.4243C80.61 50.1405 80.719 49.8551 80.8264 49.5697C80.8577 49.4861 80.8924 49.4025 80.9228 49.3189C80.9346 49.2875 80.9456 49.2546 80.9575 49.2232C80.9963 49.1163 81.0344 49.0094 81.0724 48.9016C81.1468 48.6958 81.2212 48.4909 81.2931 48.2834C81.3438 48.1371 81.392 47.99 81.4411 47.8437C81.4977 47.6757 81.556 47.5085 81.611 47.3404C81.6211 47.3091 81.6305 47.2777 81.6406 47.2464C81.7108 47.0309 81.7793 46.8123 81.8477 46.5904C81.8934 46.4449 81.9373 46.2994 81.9804 46.1547C82.0007 46.0871 82.0202 46.0196 82.0405 45.9513C82.3119 45.034 82.5596 44.1095 82.782 43.181L82.7828 43.1745C83.6595 39.5062 84.1491 35.7576 84.237 31.9824C84.2421 31.7918 84.2446 31.6142 84.2471 31.4405C84.248 31.3834 84.2488 31.3264 84.2497 31.2701C84.2497 31.2484 84.2505 31.2243 84.2505 31.2026C84.2514 31.049 84.253 30.8963 84.253 30.7492L84.2539 28.9837ZM244.892 76.8194H248.242V77.3902H244.892V76.8194ZM246.567 79.4659C246.122 79.4659 245.734 79.3718 245.402 79.1845C245.071 78.9964 244.813 78.7351 244.628 78.3983C244.443 78.0623 244.35 77.6683 244.35 77.2181C244.35 76.747 244.442 76.3394 244.623 75.9946C244.805 75.6497 245.059 75.3836 245.385 75.1955C245.711 75.0082 246.094 74.9149 246.533 74.9149C246.989 74.9149 247.378 75.0146 247.698 75.214C248.019 75.4141 248.26 75.6987 248.42 76.0685C248.582 76.4383 248.651 76.8789 248.628 77.3902H247.872V77.1345C247.864 76.6048 247.751 76.2092 247.532 75.9471C247.314 75.6851 246.989 75.554 246.558 75.554C246.096 75.554 245.744 75.6955 245.503 75.9777C245.262 76.2599 245.142 76.6642 245.142 77.1908C245.142 77.6997 245.262 78.0936 245.503 78.3726C245.744 78.6523 246.087 78.7914 246.532 78.7914C246.832 78.7914 247.092 78.7263 247.314 78.5961C247.534 78.465 247.708 78.2785 247.834 78.0325L248.552 78.2681C248.375 78.6491 248.111 78.9441 247.757 79.1524C247.402 79.3614 247.007 79.4659 246.567 79.4659ZM242.596 73.4775H243.343V79.3461H242.596V73.4775ZM239.19 78.871C239.459 78.871 239.692 78.8252 239.89 78.7335C240.087 78.6419 240.246 78.5205 240.366 78.3702C240.486 78.2198 240.564 78.0558 240.601 77.8774C240.64 77.7447 240.662 77.5968 240.668 77.4344C240.674 77.272 240.677 77.1458 240.677 77.0549L240.937 77.1627C240.694 77.1972 240.454 77.2294 240.217 77.2583C239.98 77.2873 239.758 77.3178 239.55 77.35C239.342 77.3813 239.153 77.4207 238.985 77.4657C238.862 77.5027 238.747 77.5518 238.638 77.6113C238.531 77.6707 238.444 77.7463 238.378 77.8388C238.312 77.9304 238.279 78.0438 238.279 78.1764C238.279 78.293 238.31 78.4055 238.374 78.5116C238.436 78.6186 238.534 78.7046 238.668 78.7713C238.801 78.838 238.975 78.871 239.19 78.871ZM239.077 79.4659C238.738 79.4659 238.456 79.4064 238.227 79.2882C237.999 79.17 237.827 79.0133 237.711 78.8195C237.595 78.625 237.537 78.412 237.537 78.1804C237.537 77.9537 237.581 77.7584 237.671 77.5936C237.761 77.4288 237.888 77.2897 238.056 77.1787C238.222 77.067 238.42 76.9794 238.649 76.915C238.865 76.8596 239.106 76.8105 239.371 76.7695C239.637 76.7277 239.907 76.6899 240.181 76.6554C240.456 76.6208 240.713 76.5879 240.953 76.5557L240.685 76.7036C240.691 76.3226 240.61 76.0404 240.442 75.8555C240.274 75.6698 239.983 75.5781 239.569 75.5781C239.294 75.5781 239.054 75.6376 238.849 75.7574C238.643 75.8772 238.498 76.0685 238.414 76.3322L237.705 76.128C237.814 75.7502 238.025 75.4535 238.339 75.2381C238.653 75.0226 239.065 74.9149 239.578 74.9149C239.989 74.9149 240.343 74.9849 240.638 75.1239C240.934 75.2638 241.145 75.4744 241.274 75.7566C241.339 75.8893 241.379 76.034 241.396 76.1899C241.413 76.3451 241.422 76.5083 241.422 76.6787V79.3453H240.759V78.3115L240.914 78.4071C240.744 78.7584 240.504 79.0229 240.196 79.1998C239.888 79.3767 239.516 79.4651 239.08 79.4651L239.077 79.4659ZM234.988 79.4659C234.529 79.4659 234.14 79.3686 233.819 79.1725C233.499 78.9771 233.254 78.707 233.085 78.3637C232.916 78.0204 232.829 77.6297 232.827 77.19C232.83 76.743 232.918 76.3483 233.091 76.0066C233.265 75.6642 233.511 75.3973 233.834 75.2043C234.157 75.0114 234.544 74.9149 234.997 74.9149C235.475 74.9149 235.888 75.0266 236.233 75.2501C236.579 75.4736 236.81 75.7799 236.928 76.1682L236.189 76.3796C236.091 76.1296 235.935 75.9351 235.721 75.7968C235.506 75.6585 235.262 75.5894 234.988 75.5894C234.678 75.5894 234.421 75.6577 234.22 75.7952C234.019 75.9319 233.868 76.1216 233.771 76.362C233.673 76.6031 233.623 76.8789 233.621 77.19C233.626 77.6691 233.742 78.0558 233.971 78.3501C234.198 78.6443 234.538 78.7914 234.988 78.7914C235.284 78.7914 235.53 78.7271 235.726 78.5985C235.92 78.469 236.069 78.2825 236.173 78.0381L236.929 78.2254C236.772 78.6274 236.527 78.9353 236.193 79.1483C235.86 79.3606 235.459 79.4659 234.988 79.4659ZM230.337 79.4619C229.797 79.4619 229.354 79.3493 229.008 79.125C228.662 78.8999 228.45 78.5856 228.372 78.1812L229.136 78.0655C229.198 78.2994 229.339 78.4851 229.561 78.6226C229.781 78.7601 230.056 78.8276 230.383 78.8276C230.691 78.8276 230.934 78.7665 231.112 78.6443C231.29 78.5221 231.378 78.3557 231.378 78.1459C231.378 78.0261 231.349 77.928 231.29 77.8524C231.231 77.7769 231.11 77.7053 230.927 77.6394C230.743 77.5727 230.468 77.4915 230.098 77.3958C229.698 77.2945 229.383 77.19 229.154 77.0823C228.924 76.9745 228.761 76.8491 228.663 76.7052C228.565 76.5613 228.517 76.3853 228.517 76.1779C228.517 75.9254 228.589 75.7043 228.735 75.5154C228.88 75.3265 229.084 75.1794 229.346 75.0741C229.607 74.9688 229.912 74.9165 230.259 74.9165C230.603 74.9165 230.912 74.9688 231.183 75.0725C231.454 75.1762 231.673 75.3233 231.84 75.5138C232.007 75.7035 232.105 75.9254 232.136 76.1787L231.372 76.3105C231.335 76.0814 231.218 75.8997 231.019 75.7655C230.82 75.6312 230.567 75.5596 230.259 75.5516C229.966 75.5436 229.726 75.5942 229.544 75.7036C229.36 75.8129 229.269 75.9592 229.269 76.1425C229.269 76.2486 229.303 76.3387 229.372 76.4118C229.441 76.485 229.568 76.5549 229.754 76.6216C229.94 76.6875 230.211 76.7639 230.567 76.8491C230.967 76.9448 231.282 77.0493 231.514 77.1627C231.744 77.276 231.909 77.4087 232.007 77.5622C232.105 77.7149 232.154 77.9039 232.154 78.1274C232.154 78.5422 231.993 78.8694 231.671 79.1073C231.349 79.3453 230.905 79.4643 230.34 79.4643L230.337 79.4619ZM224.938 73.4775H225.685V79.3461H224.938V73.4775ZM221.533 78.871C221.802 78.871 222.034 78.8252 222.232 78.7335C222.429 78.6419 222.588 78.5205 222.708 78.3702C222.828 78.2198 222.907 78.0558 222.944 77.8774C222.983 77.7447 223.005 77.5968 223.011 77.4344C223.017 77.272 223.019 77.1458 223.019 77.0549L223.28 77.1627C223.036 77.1972 222.796 77.2294 222.559 77.2583C222.323 77.2873 222.1 77.3178 221.892 77.35C221.684 77.3813 221.496 77.4207 221.328 77.4657C221.204 77.5027 221.089 77.5518 220.981 77.6113C220.874 77.6707 220.787 77.7463 220.721 77.8388C220.655 77.9304 220.622 78.0438 220.622 78.1764C220.622 78.293 220.653 78.4055 220.716 78.5116C220.779 78.6186 220.877 78.7046 221.011 78.7713C221.143 78.838 221.317 78.871 221.533 78.871ZM221.42 79.4659C221.081 79.4659 220.798 79.4064 220.57 79.2882C220.342 79.17 220.169 79.0133 220.054 78.8195C219.938 78.625 219.879 78.412 219.879 78.1804C219.879 77.9537 219.924 77.7584 220.014 77.5936C220.103 77.4288 220.231 77.2897 220.398 77.1787C220.564 77.067 220.763 76.9794 220.992 76.915C221.208 76.8596 221.449 76.8105 221.714 76.7695C221.979 76.7277 222.25 76.6899 222.524 76.6554C222.799 76.6208 223.056 76.5879 223.296 76.5557L223.028 76.7036C223.034 76.3226 222.953 76.0404 222.784 75.8555C222.617 75.6698 222.326 75.5781 221.912 75.5781C221.637 75.5781 221.397 75.6376 221.191 75.7574C220.986 75.8772 220.841 76.0685 220.757 76.3322L220.048 76.128C220.157 75.7502 220.368 75.4535 220.682 75.2381C220.995 75.0226 221.408 74.9149 221.92 74.9149C222.331 74.9149 222.685 74.9849 222.981 75.1239C223.276 75.2638 223.488 75.4744 223.616 75.7566C223.681 75.8893 223.721 76.034 223.739 76.1899C223.756 76.3451 223.764 76.5083 223.764 76.6787V79.3453H223.101V78.3115L223.257 78.4071C223.086 78.7584 222.847 79.0229 222.538 79.1998C222.231 79.3767 221.859 79.4651 221.422 79.4651L221.42 79.4659ZM217.083 78.8155C217.38 78.8155 217.627 78.744 217.824 78.6001C218.022 78.4562 218.169 78.2616 218.267 78.0156C218.365 77.7696 218.414 77.4931 218.414 77.1876C218.414 76.8837 218.365 76.6104 218.267 76.3652C218.169 76.12 218.021 75.9262 217.822 75.7823C217.623 75.6384 217.37 75.5669 217.061 75.5669C216.768 75.5669 216.525 75.6352 216.331 75.7727C216.138 75.9093 215.994 76.1007 215.899 76.3451C215.803 76.5903 215.756 76.8708 215.756 77.1876C215.756 77.5011 215.803 77.7817 215.896 78.0277C215.99 78.2737 216.135 78.4666 216.331 78.6065C216.527 78.7464 216.778 78.8155 217.083 78.8155ZM217.176 79.4659C216.75 79.4659 216.392 79.3654 216.101 79.1644C215.81 78.9635 215.59 78.6917 215.44 78.3484C215.29 78.0052 215.216 77.6185 215.216 77.1868C215.216 76.7527 215.29 76.3652 215.44 76.0227C215.59 75.681 215.811 75.4109 216.104 75.2123C216.396 75.0138 216.755 74.9149 217.181 74.9149C217.6 74.9149 217.963 75.0138 218.266 75.2123C218.57 75.4101 218.802 75.681 218.965 76.0243C219.127 76.3676 219.208 76.7551 219.208 77.186C219.208 77.6169 219.127 78.0052 218.965 78.3501C218.802 78.6941 218.57 78.9667 218.266 79.166C217.963 79.3654 217.598 79.4659 217.176 79.4659ZM215.089 79.3461V73.5973H215.841V76.1722H215.756V79.3461H215.089ZM211.983 78.7914C212.45 78.7914 212.799 78.6427 213.03 78.3444C213.261 78.047 213.377 77.6603 213.377 77.1868C213.377 76.702 213.26 76.3153 213.029 76.0251C212.796 75.7349 212.448 75.5902 211.984 75.5902C211.667 75.5902 211.407 75.6577 211.202 75.7936C210.998 75.9294 210.846 76.1168 210.745 76.3563C210.644 76.5959 210.595 76.8724 210.595 77.1868C210.595 77.6707 210.712 78.0598 210.947 78.3525C211.182 78.6451 211.526 78.7914 211.983 78.7914ZM211.983 79.4659C211.532 79.4659 211.143 79.3686 210.818 79.1741C210.491 78.9803 210.24 78.7118 210.064 78.3693C209.888 78.0277 209.8 77.633 209.8 77.186C209.8 76.7366 209.889 76.3402 210.069 75.9986C210.248 75.6569 210.502 75.3908 210.829 75.2003C211.156 75.0098 211.541 74.9149 211.984 74.9149C212.437 74.9149 212.827 75.0122 213.155 75.2067C213.482 75.4005 213.733 75.6682 213.908 76.009C214.083 76.3499 214.17 76.7422 214.17 77.1868C214.17 77.637 214.082 78.0325 213.905 78.3742C213.729 78.7166 213.477 78.9835 213.15 79.1765C212.822 79.3694 212.433 79.4659 211.983 79.4659ZM208.045 73.4775H208.792V79.3461H208.045V73.4775ZM204.795 78.8147C205.1 78.8147 205.35 78.7448 205.546 78.6049C205.742 78.465 205.887 78.2721 205.981 78.0261C206.075 77.7801 206.121 77.4995 206.121 77.186C206.121 76.8692 206.074 76.5887 205.978 76.3435C205.883 76.0991 205.74 75.9077 205.548 75.7711C205.356 75.6336 205.113 75.5653 204.816 75.5653C204.508 75.5653 204.255 75.6368 204.054 75.7807C203.854 75.9246 203.706 76.1184 203.609 76.3636C203.512 76.6088 203.464 76.8829 203.464 77.186C203.464 77.4923 203.513 77.768 203.61 78.014C203.708 78.26 203.855 78.4554 204.053 78.5985C204.25 78.7424 204.499 78.8147 204.795 78.8147ZM204.758 81.3808C204.519 81.3808 204.287 81.3463 204.06 81.2771C203.833 81.208 203.625 81.1035 203.437 80.9636C203.248 80.8237 203.09 80.6476 202.964 80.4354L203.648 80.0921C203.76 80.3028 203.92 80.4555 204.124 80.5504C204.33 80.6461 204.542 80.6943 204.76 80.6943C205.048 80.6943 205.288 80.6444 205.476 80.5448C205.666 80.4451 205.806 80.2971 205.898 80.0994C205.99 79.9024 206.035 79.6572 206.032 79.3654V78.1877H206.12V75.0339H206.784V79.3726C206.784 79.4924 206.781 79.6066 206.774 79.7143C206.766 79.822 206.752 79.929 206.729 80.0359C206.671 80.3414 206.554 80.5938 206.381 80.7924C206.207 80.9901 205.983 81.1381 205.709 81.2353C205.434 81.3326 205.118 81.3808 204.758 81.3808ZM204.703 79.4651C204.281 79.4651 203.918 79.3654 203.615 79.166C203.313 78.9658 203.08 78.6941 202.916 78.3501C202.752 78.0052 202.67 77.6177 202.67 77.186C202.67 76.7551 202.752 76.3676 202.916 76.0243C203.079 75.681 203.313 75.4101 203.615 75.2123C203.918 75.0138 204.278 74.9149 204.698 74.9149C205.127 74.9149 205.486 75.0138 205.777 75.2123C206.068 75.4101 206.289 75.681 206.438 76.0227C206.588 76.3652 206.662 76.7527 206.662 77.1868C206.662 77.6177 206.588 78.0052 206.438 78.3484C206.289 78.6917 206.068 78.9643 205.777 79.1644C205.486 79.3654 205.128 79.4651 204.703 79.4651ZM197.923 78.8702C198.191 78.8702 198.424 78.8244 198.622 78.7327C198.819 78.6411 198.978 78.5197 199.098 78.3693C199.218 78.219 199.297 78.055 199.334 77.8765C199.373 77.7439 199.395 77.596 199.401 77.4336C199.407 77.2712 199.409 77.145 199.409 77.0541L199.67 77.1618C199.426 77.1964 199.186 77.2286 198.949 77.2575C198.713 77.2865 198.49 77.317 198.282 77.3492C198.074 77.3805 197.885 77.4199 197.717 77.4649C197.595 77.5019 197.479 77.551 197.371 77.6104C197.263 77.6699 197.176 77.7455 197.11 77.838C197.044 77.9296 197.011 78.043 197.011 78.1756C197.011 78.2922 197.043 78.4047 197.106 78.5108C197.169 78.6178 197.267 78.7038 197.4 78.7705C197.532 78.8372 197.706 78.8702 197.923 78.8702ZM197.81 79.4651C197.471 79.4651 197.187 79.4056 196.96 79.2874C196.732 79.1692 196.56 79.0125 196.443 78.8187C196.327 78.6242 196.269 78.4112 196.269 78.1796C196.269 77.9529 196.314 77.7576 196.404 77.5928C196.493 77.428 196.621 77.2889 196.788 77.1779C196.954 77.0662 197.153 76.9786 197.382 76.9143C197.597 76.8588 197.838 76.8098 198.104 76.7688C198.369 76.7269 198.64 76.6891 198.914 76.6546C199.188 76.62 199.446 76.587 199.686 76.5549L199.418 76.7028C199.424 76.3218 199.342 76.0396 199.174 75.8547C199.007 75.669 198.716 75.5773 198.302 75.5773C198.028 75.5773 197.787 75.6368 197.581 75.7566C197.376 75.8764 197.23 76.0677 197.147 76.3314L196.437 76.1272C196.546 75.7494 196.758 75.4527 197.071 75.2373C197.385 75.0218 197.798 74.9141 198.31 74.9141C198.721 74.9141 199.074 74.9841 199.37 75.1231C199.665 75.263 199.878 75.4736 200.006 75.7558C200.071 75.8884 200.111 76.0332 200.128 76.1891C200.145 76.3443 200.153 76.5075 200.153 76.6779V79.3445H199.49V78.3107L199.646 78.4063C199.475 78.7576 199.236 79.0221 198.927 79.199C198.62 79.3759 198.247 79.4651 197.81 79.4651ZM192.994 79.3453V77.1852C192.994 76.9834 192.974 76.7872 192.936 76.5983C192.897 76.4094 192.831 76.239 192.739 76.087C192.646 75.9359 192.52 75.8161 192.362 75.7285C192.204 75.6409 192.005 75.5966 191.765 75.5966C191.577 75.5966 191.407 75.6272 191.254 75.6883C191.102 75.7502 190.971 75.841 190.862 75.9616C190.752 76.083 190.667 76.2357 190.607 76.4206C190.547 76.6055 190.517 76.8234 190.517 77.0734L190.025 76.9295C190.025 76.5139 190.105 76.1562 190.263 75.8555C190.421 75.5548 190.643 75.3241 190.93 75.1633C191.217 75.0017 191.555 74.9213 191.944 74.9213C192.237 74.9213 192.488 74.9655 192.695 75.0532C192.903 75.1408 193.075 75.2582 193.212 75.4045C193.349 75.5508 193.456 75.7132 193.535 75.8917C193.614 76.0701 193.669 76.2526 193.702 76.4391C193.734 76.6256 193.75 76.8001 193.75 76.9625V79.3453H192.994ZM189.761 79.3453V75.0339H190.433V76.1875H190.518V79.3453H189.761ZM186.655 78.7906C187.122 78.7906 187.471 78.6419 187.702 78.3436C187.933 78.0462 188.049 77.6595 188.049 77.186C188.049 76.7012 187.932 76.3145 187.7 76.0243C187.468 75.7341 187.12 75.5894 186.655 75.5894C186.339 75.5894 186.079 75.6569 185.874 75.7928C185.67 75.9286 185.517 76.116 185.417 76.3555C185.316 76.5951 185.266 76.8716 185.266 77.186C185.266 77.6699 185.383 78.059 185.618 78.3517C185.853 78.6443 186.198 78.7906 186.655 78.7906ZM186.655 79.4651C186.204 79.4651 185.816 79.3678 185.49 79.1733C185.163 78.9795 184.912 78.711 184.736 78.3685C184.56 78.0269 184.472 77.6322 184.472 77.1852C184.472 76.7358 184.561 76.3395 184.741 75.9978C184.92 75.6561 185.173 75.39 185.501 75.1995C185.828 75.009 186.212 74.9141 186.655 74.9141C187.108 74.9141 187.498 75.0114 187.826 75.2059C188.153 75.3997 188.404 75.6674 188.579 76.0082C188.754 76.3491 188.841 76.7414 188.841 77.186C188.841 77.6362 188.753 78.0317 188.576 78.3734C188.4 78.7158 188.148 78.9827 187.821 79.1757C187.493 79.3686 187.104 79.4651 186.655 79.4651ZM179.157 81.261L180.035 78.994L180.047 79.6645L178.066 75.0339H178.851L180.404 78.7584H180.135L181.591 75.0339H182.351L179.883 81.261H179.157ZM177.73 79.3453C177.461 79.3984 177.196 79.4201 176.934 79.4112C176.672 79.4016 176.439 79.3509 176.234 79.2593C176.028 79.1676 175.873 79.0237 175.769 78.8268C175.68 78.6563 175.632 78.4843 175.625 78.3099C175.618 78.1354 175.615 77.9385 175.615 77.7174V73.8369H176.362V77.6852C176.362 77.8605 176.364 78.0116 176.368 78.1362C176.373 78.2616 176.401 78.3685 176.454 78.4594C176.555 78.6298 176.715 78.7295 176.934 78.7593C177.154 78.7882 177.42 78.7801 177.73 78.7351V79.3453ZM174.695 75.0347L177.73 75.0339V75.6208L174.695 75.6216V75.0347ZM173.192 75.0339H173.94V79.3453H173.192V75.0339ZM173.192 73.537H173.94V74.2718H173.192V73.537ZM169.972 79.3453V75.0339H170.64V76.0758L170.53 75.9399C170.583 75.8073 170.653 75.6851 170.738 75.5725C170.823 75.4608 170.919 75.3691 171.026 75.2976C171.143 75.2067 171.276 75.1384 171.425 75.0918C171.573 75.0451 171.724 75.0178 171.878 75.0082C172.032 74.9985 172.176 75.0074 172.311 75.0339V75.7003C172.153 75.6634 171.982 75.6537 171.794 75.6722C171.607 75.6915 171.433 75.755 171.274 75.8635C171.129 75.9656 171.016 76.0854 170.936 76.2253C170.856 76.3652 170.801 76.5163 170.77 76.6803C170.739 76.8443 170.724 77.0115 170.724 77.182V79.3453H169.972ZM168.129 79.3453V78.1917H168.045V75.0339H168.797V79.3453H168.129ZM166.617 79.4571C166.324 79.4571 166.073 79.4128 165.866 79.3252C165.659 79.2376 165.486 79.1202 165.349 78.9739C165.212 78.8276 165.104 78.6652 165.026 78.4867C164.948 78.3082 164.893 78.1257 164.86 77.94C164.828 77.7535 164.812 77.5791 164.812 77.4167V75.0339H165.567V77.1932C165.567 77.3958 165.587 77.5911 165.626 77.7801C165.664 77.969 165.731 78.1394 165.825 78.2906C165.919 78.4417 166.045 78.5615 166.203 78.6499C166.361 78.7375 166.56 78.7818 166.797 78.7818C166.985 78.7818 167.155 78.7512 167.308 78.6901C167.46 78.629 167.591 78.5382 167.7 78.4168C167.809 78.2954 167.895 78.1427 167.955 77.9553C168.015 77.7696 168.045 77.5518 168.045 77.305L168.537 77.4489C168.537 77.8637 168.458 78.2214 168.299 78.5229C168.141 78.8227 167.918 79.0543 167.632 79.2151C167.345 79.3759 167.006 79.4571 166.617 79.4571ZM162.096 79.4651C161.637 79.4651 161.247 79.3678 160.927 79.1717C160.606 78.9763 160.361 78.7062 160.191 78.3629C160.022 78.0196 159.936 77.6289 159.933 77.1892C159.936 76.7422 160.024 76.3475 160.198 76.0058C160.371 75.6634 160.618 75.3965 160.941 75.2035C161.263 75.0106 161.65 74.9141 162.103 74.9141C162.582 74.9141 162.995 75.0258 163.339 75.2493C163.685 75.4728 163.917 75.7791 164.034 76.1674L163.296 76.3788C163.197 76.1288 163.041 75.9343 162.827 75.796C162.612 75.6577 162.369 75.5886 162.095 75.5886C161.785 75.5886 161.528 75.6569 161.326 75.7944C161.125 75.931 160.975 76.1208 160.878 76.3612C160.779 76.6023 160.73 76.8781 160.727 77.1892C160.733 77.6683 160.849 78.055 161.077 78.3493C161.304 78.6435 161.644 78.7906 162.095 78.7906C162.391 78.7906 162.637 78.7263 162.832 78.5977C163.027 78.4682 163.175 78.2817 163.279 78.0373L164.035 78.2246C163.878 78.6266 163.634 78.9345 163.3 79.1475C162.967 79.3598 162.566 79.4651 162.096 79.4651ZM155.517 76.8186H158.867V77.3894H155.517V76.8186ZM157.192 79.4651C156.747 79.4651 156.359 79.371 156.027 79.1837C155.696 78.9956 155.438 78.7343 155.253 78.3975C155.068 78.0615 154.975 77.6675 154.975 77.2173C154.975 76.7462 155.067 76.3386 155.248 75.9938C155.43 75.6489 155.684 75.3828 156.01 75.1947C156.337 75.0074 156.719 74.9141 157.158 74.9141C157.614 74.9141 158.003 75.0138 158.323 75.2132C158.644 75.4133 158.885 75.6979 159.045 76.0677C159.207 76.4375 159.276 76.8781 159.253 77.3894H158.498V77.1337C158.489 76.6039 158.376 76.2084 158.157 75.9463C157.939 75.6843 157.614 75.5532 157.183 75.5532C156.721 75.5532 156.37 75.6947 156.129 75.9769C155.888 76.2591 155.768 76.6634 155.768 77.19C155.768 77.6989 155.888 78.0928 156.129 78.3718C156.37 78.6515 156.712 78.7906 157.158 78.7906C157.457 78.7906 157.717 78.7255 157.939 78.5952C158.159 78.4642 158.333 78.2777 158.459 78.0317L159.176 78.2673C159.001 78.6483 158.735 78.9433 158.381 79.1516C158.027 79.3606 157.632 79.4651 157.192 79.4651ZM152.486 79.4611C151.946 79.4611 151.503 79.3485 151.157 79.1242C150.812 78.8991 150.599 78.5848 150.522 78.1804L151.286 78.0647C151.348 78.2986 151.489 78.4843 151.71 78.6218C151.931 78.7593 152.206 78.8268 152.533 78.8268C152.841 78.8268 153.083 78.7657 153.262 78.6435C153.439 78.5213 153.528 78.3549 153.528 78.1451C153.528 78.0253 153.498 77.9272 153.44 77.8516C153.381 77.7761 153.26 77.7045 153.077 77.6386C152.893 77.5718 152.617 77.4907 152.248 77.395C151.847 77.2937 151.533 77.1892 151.303 77.0815C151.073 76.9737 150.91 76.8483 150.812 76.7044C150.713 76.5605 150.664 76.3845 150.664 76.1771C150.664 75.9246 150.737 75.7035 150.883 75.5146C151.028 75.3257 151.232 75.1786 151.494 75.0733C151.755 74.968 152.059 74.9157 152.407 74.9157C152.751 74.9157 153.06 74.968 153.331 75.0717C153.602 75.1754 153.821 75.3225 153.988 75.513C154.154 75.7027 154.253 75.9246 154.284 76.1779L153.52 76.3097C153.483 76.0806 153.366 75.8989 153.167 75.7647C152.968 75.6304 152.716 75.5588 152.407 75.5508C152.114 75.5428 151.874 75.5934 151.692 75.7028C151.508 75.8121 151.417 75.9584 151.417 76.1417C151.417 76.2478 151.451 76.3379 151.519 76.411C151.588 76.4842 151.715 76.5541 151.901 76.6208C152.087 76.6867 152.358 76.7631 152.714 76.8483C153.114 76.944 153.429 77.0485 153.66 77.1618C153.892 77.2752 154.056 77.4079 154.154 77.5614C154.252 77.7142 154.301 77.9031 154.301 78.1266C154.301 78.5414 154.14 78.8686 153.818 79.1065C153.496 79.3445 153.052 79.4635 152.487 79.4635L152.486 79.4611ZM145.929 78.8147C146.233 78.8147 146.484 78.7448 146.68 78.6049C146.876 78.465 147.021 78.2721 147.114 78.0261C147.208 77.7801 147.256 77.4995 147.256 77.186C147.256 76.8692 147.207 76.5887 147.112 76.3435C147.017 76.0991 146.873 75.9077 146.681 75.7711C146.49 75.6336 146.246 75.5653 145.949 75.5653C145.642 75.5653 145.387 75.6368 145.188 75.7807C144.987 75.9246 144.839 76.1184 144.742 76.3636C144.646 76.6088 144.597 76.8829 144.597 77.186C144.597 77.4923 144.646 77.768 144.744 78.014C144.842 78.26 144.989 78.4554 145.187 78.5985C145.384 78.7424 145.633 78.8147 145.929 78.8147ZM145.892 81.3808C145.653 81.3808 145.422 81.3463 145.194 81.2771C144.968 81.208 144.76 81.1035 144.571 80.9636C144.382 80.8237 144.225 80.6476 144.099 80.4354L144.783 80.0921C144.894 80.3028 145.053 80.4555 145.259 80.5504C145.464 80.6461 145.676 80.6943 145.894 80.6943C146.182 80.6943 146.421 80.6444 146.61 80.5448C146.798 80.4451 146.939 80.2971 147.032 80.0994C147.124 79.9024 147.168 79.6572 147.166 79.3654V78.1877H147.255V75.0339H147.918V79.3726C147.918 79.4924 147.914 79.6066 147.907 79.7143C147.9 79.822 147.886 79.929 147.863 80.0359C147.805 80.3414 147.688 80.5938 147.515 80.7924C147.341 80.9901 147.117 81.1381 146.843 81.2353C146.568 81.3326 146.253 81.3808 145.892 81.3808ZM145.837 79.4651C145.414 79.4651 145.052 79.3654 144.75 79.166C144.447 78.9658 144.214 78.6941 144.05 78.3501C143.886 78.0052 143.804 77.6177 143.804 77.186C143.804 76.7551 143.886 76.3676 144.05 76.0243C144.214 75.681 144.447 75.4101 144.75 75.2123C145.052 75.0138 145.412 74.9149 145.833 74.9149C146.26 74.9149 146.621 75.0138 146.911 75.2123C147.202 75.4101 147.423 75.681 147.573 76.0227C147.722 76.3652 147.797 76.7527 147.797 77.1868C147.797 77.6177 147.722 78.0052 147.573 78.3484C147.423 78.6917 147.202 78.9643 146.911 79.1644C146.621 79.3654 146.262 79.4651 145.837 79.4651ZM142.21 79.3453V77.1852C142.21 76.9834 142.19 76.7872 142.152 76.5983C142.113 76.4094 142.046 76.239 141.954 76.087C141.862 75.9359 141.736 75.8161 141.577 75.7285C141.419 75.6409 141.22 75.5966 140.979 75.5966C140.792 75.5966 140.621 75.6272 140.469 75.6883C140.317 75.7502 140.186 75.841 140.077 75.9616C139.967 76.083 139.882 76.2357 139.822 76.4206C139.762 76.6055 139.732 76.8234 139.732 77.0734L139.241 76.9295C139.241 76.5139 139.32 76.1562 139.478 75.8555C139.636 75.5548 139.859 75.3241 140.145 75.1633C140.432 75.0017 140.77 74.9213 141.159 74.9213C141.453 74.9213 141.703 74.9655 141.911 75.0532C142.118 75.1408 142.29 75.2582 142.427 75.4045C142.564 75.5508 142.671 75.7132 142.75 75.8917C142.829 76.0701 142.884 76.2526 142.916 76.4391C142.948 76.6256 142.964 76.8001 142.964 76.9625V79.3453H142.21ZM138.978 79.3453V75.0339H139.65V76.1875H139.734V79.3453H138.978ZM136.976 75.0339H137.723V79.3453H136.976V75.0339ZM136.976 73.537H137.723V74.2718H136.976V73.537ZM135.044 79.3453V77.1852C135.044 76.9834 135.024 76.7872 134.985 76.5983C134.947 76.4094 134.881 76.239 134.788 76.087C134.695 75.9359 134.57 75.8161 134.411 75.7285C134.253 75.6409 134.054 75.5966 133.813 75.5966C133.626 75.5966 133.455 75.6272 133.303 75.6883C133.151 75.7502 133.02 75.841 132.911 75.9616C132.801 76.083 132.716 76.2357 132.656 76.4206C132.596 76.6055 132.566 76.8234 132.566 77.0734L132.075 76.9295C132.075 76.5139 132.154 76.1562 132.312 75.8555C132.47 75.5548 132.693 75.3241 132.979 75.1633C133.266 75.0017 133.604 74.9213 133.993 74.9213C134.286 74.9213 134.537 74.9655 134.744 75.0532C134.952 75.1408 135.124 75.2582 135.261 75.4045C135.398 75.5508 135.505 75.7132 135.584 75.8917C135.663 76.0701 135.718 76.2526 135.751 76.4391C135.783 76.6256 135.799 76.8001 135.799 76.9625V79.3453H135.044ZM131.811 79.3453V75.0339H132.483V76.1875H132.567V79.3453H131.811ZM127.273 76.8186H130.624V77.3894H127.273V76.8186ZM128.948 79.4651C128.503 79.4651 128.114 79.371 127.783 79.1837C127.452 78.9956 127.194 78.7343 127.009 78.3975C126.823 78.0615 126.731 77.6675 126.731 77.2173C126.731 76.7462 126.822 76.3386 127.004 75.9938C127.185 75.6489 127.44 75.3828 127.766 75.1947C128.092 75.0074 128.475 74.9141 128.914 74.9141C129.37 74.9141 129.759 75.0138 130.079 75.2132C130.4 75.4133 130.641 75.6979 130.801 76.0677C130.963 76.4375 131.032 76.8781 131.009 77.3894H130.253V77.1337C130.244 76.6039 130.132 76.2084 129.913 75.9463C129.695 75.6843 129.37 75.5532 128.939 75.5532C128.477 75.5532 128.126 75.6947 127.884 75.9769C127.644 76.2591 127.523 76.6634 127.523 77.19C127.523 77.6989 127.644 78.0928 127.884 78.3718C128.125 78.6515 128.469 78.7906 128.913 78.7906C129.213 78.7906 129.473 78.7255 129.695 78.5952C129.915 78.4642 130.089 78.2777 130.215 78.0317L130.932 78.2673C130.756 78.6483 130.491 78.9433 130.137 79.1516C129.783 79.3606 129.387 79.4651 128.948 79.4651ZM126.185 79.3453C125.916 79.3984 125.652 79.4201 125.39 79.4112C125.127 79.4016 124.894 79.3509 124.689 79.2593C124.483 79.1676 124.329 79.0237 124.225 78.8268C124.135 78.6563 124.087 78.4843 124.079 78.3099C124.072 78.1354 124.068 77.9385 124.068 77.7174V73.8369H124.815V77.6852C124.815 77.8605 124.818 78.0116 124.822 78.1362C124.826 78.2616 124.855 78.3685 124.908 78.4594C125.009 78.6298 125.17 78.7295 125.39 78.7593C125.609 78.7882 125.874 78.7801 126.185 78.7351V79.3453ZM123.15 75.0347L126.185 75.0339V75.6208L123.15 75.6216V75.0347ZM121.806 79.3453V77.1852C121.806 76.9834 121.787 76.7872 121.748 76.5983C121.709 76.4094 121.643 76.239 121.55 76.087C121.458 75.9359 121.333 75.8161 121.175 75.7285C121.017 75.6409 120.817 75.5966 120.577 75.5966C120.39 75.5966 120.22 75.6272 120.067 75.6883C119.915 75.7502 119.784 75.841 119.675 75.9616C119.566 76.083 119.481 76.2357 119.421 76.4206C119.361 76.6055 119.33 76.8234 119.33 77.0734L118.839 76.9295C118.839 76.5139 118.918 76.1562 119.077 75.8555C119.235 75.5548 119.458 75.3241 119.744 75.1633C120.031 75.0017 120.368 74.9213 120.758 74.9213C121.051 74.9213 121.303 74.9655 121.51 75.0532C121.717 75.1408 121.889 75.2582 122.025 75.4045C122.163 75.5508 122.271 75.7132 122.349 75.8917C122.427 76.0701 122.483 76.2526 122.515 76.4391C122.547 76.6256 122.563 76.8001 122.563 76.9625V79.3453H121.806ZM118.573 79.3453V73.5965H119.246V76.7704H119.33V79.3453H118.573ZM115.412 78.8147C115.718 78.8147 115.968 78.7448 116.164 78.6049C116.36 78.465 116.505 78.2721 116.598 78.0261C116.692 77.7801 116.739 77.4995 116.739 77.186C116.739 76.8692 116.691 76.5887 116.596 76.3435C116.501 76.0991 116.358 75.9077 116.166 75.7711C115.975 75.6336 115.73 75.5653 115.433 75.5653C115.126 75.5653 114.871 75.6368 114.672 75.7807C114.471 75.9246 114.323 76.1184 114.227 76.3636C114.131 76.6088 114.082 76.8829 114.082 77.186C114.082 77.4923 114.131 77.768 114.23 78.014C114.328 78.26 114.475 78.4554 114.673 78.5985C114.87 78.7424 115.116 78.8147 115.412 78.8147ZM115.374 81.3808C115.137 81.3808 114.904 81.3463 114.678 81.2771C114.451 81.208 114.243 81.1035 114.055 80.9636C113.865 80.8237 113.708 80.6476 113.583 80.4354L114.267 80.0921C114.379 80.3028 114.537 80.4555 114.744 80.5504C114.949 80.6461 115.161 80.6943 115.379 80.6943C115.668 80.6943 115.907 80.6444 116.095 80.5448C116.284 80.4451 116.425 80.2971 116.517 80.0994C116.609 79.9024 116.654 79.6572 116.652 79.3654V78.1877H116.74V75.0339H117.403V79.3726C117.403 79.4924 117.399 79.6066 117.392 79.7143C117.386 79.822 117.37 79.929 117.348 80.0359C117.29 80.3414 117.173 80.5938 117 80.7924C116.827 80.9901 116.603 81.1381 116.329 81.2353C116.054 81.3326 115.735 81.3808 115.374 81.3808ZM115.32 79.4651C114.898 79.4651 114.535 79.3654 114.233 79.166C113.931 78.9658 113.698 78.6941 113.535 78.3501C113.371 78.0052 113.289 77.6177 113.289 77.186C113.289 76.7551 113.371 76.3676 113.535 76.0243C113.698 75.681 113.931 75.4101 114.233 75.2123C114.536 75.0138 114.897 74.9149 115.316 74.9149C115.745 74.9149 116.104 75.0138 116.395 75.2123C116.686 75.4101 116.907 75.681 117.057 76.0227C117.206 76.3652 117.281 76.7527 117.281 77.1868C117.281 77.6177 117.206 78.0052 117.057 78.3484C116.907 78.6917 116.686 78.9643 116.395 79.1644C116.104 79.3654 115.745 79.4651 115.32 79.4651ZM111.693 79.3453V77.1852C111.693 76.9834 111.674 76.7872 111.634 76.5983C111.595 76.4094 111.529 76.239 111.437 76.087C111.344 75.9359 111.219 75.8161 111.061 75.7285C110.903 75.6409 110.703 75.5966 110.463 75.5966C110.275 75.5966 110.105 75.6272 109.952 75.6883C109.8 75.7502 109.669 75.841 109.56 75.9616C109.451 76.083 109.366 76.2357 109.306 76.4206C109.246 76.6055 109.216 76.8234 109.216 77.0734L108.725 76.9295C108.725 76.5139 108.803 76.1562 108.962 75.8555C109.12 75.5548 109.343 75.3241 109.63 75.1633C109.917 75.0017 110.254 74.9213 110.644 74.9213C110.937 74.9213 111.188 74.9655 111.395 75.0532C111.602 75.1408 111.774 75.2582 111.911 75.4045C112.048 75.5508 112.156 75.7132 112.234 75.8917C112.313 76.0701 112.368 76.2526 112.4 76.4391C112.432 76.6256 112.448 76.8001 112.448 76.9625V79.3453H111.693ZM108.46 79.3453V75.0339H109.132V76.1875H109.217V79.3453H108.46ZM103.922 76.8186H107.272V77.3894H103.922V76.8186ZM105.597 79.4651C105.151 79.4651 104.763 79.371 104.432 79.1837C104.1 78.9956 103.841 78.7343 103.657 78.3975C103.473 78.0615 103.38 77.6675 103.38 77.2173C103.38 76.7462 103.471 76.3386 103.652 75.9938C103.834 75.6489 104.088 75.3828 104.414 75.1947C104.74 75.0074 105.122 74.9141 105.562 74.9141C106.018 74.9141 106.407 75.0138 106.727 75.2132C107.047 75.4133 107.288 75.6979 107.449 76.0677C107.61 76.4375 107.68 76.8781 107.657 77.3894H106.901V77.1337C106.893 76.6039 106.779 76.2084 106.561 75.9463C106.343 75.6843 106.018 75.5532 105.587 75.5532C105.126 75.5532 104.775 75.6947 104.534 75.9769C104.293 76.2591 104.173 76.6634 104.173 77.19C104.173 77.6989 104.293 78.0928 104.534 78.3718C104.775 78.6515 105.117 78.7906 105.562 78.7906C105.861 78.7906 106.122 78.7255 106.343 78.5952C106.565 78.4642 106.737 78.2777 106.864 78.0317L107.582 78.2673C107.405 78.6483 107.14 78.9433 106.785 79.1516C106.432 79.3606 106.035 79.4651 105.597 79.4651ZM100.58 79.3453V75.0339H101.247V76.0758L101.138 75.9399C101.191 75.8073 101.26 75.6851 101.346 75.5725C101.431 75.4608 101.527 75.3691 101.633 75.2976C101.751 75.2067 101.883 75.1384 102.031 75.0918C102.18 75.0451 102.331 75.0178 102.484 75.0082C102.638 74.9985 102.783 75.0074 102.916 75.0339V75.7003C102.76 75.6634 102.588 75.6537 102.4 75.6722C102.212 75.6915 102.039 75.755 101.879 75.8635C101.735 75.9656 101.621 76.0854 101.541 76.2253C101.461 76.3652 101.406 76.5163 101.375 76.6803C101.344 76.8443 101.329 77.0115 101.329 77.182V79.3453H100.577H100.58ZM99.6564 79.3453C99.3875 79.3984 99.1221 79.4201 98.8608 79.4112C98.5987 79.4016 98.3654 79.3509 98.1591 79.2593C97.9537 79.1676 97.7989 79.0237 97.6949 78.8268C97.6053 78.6563 97.5571 78.4843 97.5495 78.3099C97.5428 78.1354 97.5394 77.9385 97.5394 77.7174V73.8369H98.2868V77.6852C98.2868 77.8605 98.2893 78.0116 98.2935 78.1362C98.2978 78.2616 98.3257 78.3685 98.3798 78.4594C98.4804 78.6298 98.641 78.7295 98.8608 78.7593C99.0798 78.7882 99.3453 78.7801 99.6564 78.7351V79.3453ZM96.6221 75.0347L99.6564 75.0339V75.6208L96.6221 75.6216V75.0347Z" fill="#FF7955"/>
</svg>
