<svg width="11" height="14" viewBox="0 0 11 14" fill="none" xmlns="http://www.w3.org/2000/svg">
<path d="M5.5 7C5.87813 7 6.20194 6.8726 6.47144 6.6178C6.74094 6.363 6.87546 6.05707 6.875 5.7C6.875 5.3425 6.74025 5.03635 6.47075 4.78155C6.20125 4.52675 5.87767 4.39957 5.5 4.4C5.12187 4.4 4.79806 4.5274 4.52856 4.7822C4.25906 5.037 4.12454 5.34293 4.125 5.7C4.125 6.0575 4.25975 6.36365 4.52925 6.61845C4.79875 6.87325 5.12233 7.00043 5.5 7ZM5.5 13.5C3.65521 12.0158 2.27746 10.6374 1.36675 9.3647C0.456042 8.092 0.000458333 6.91377 0 5.83C0 4.205 0.552979 2.91042 1.65894 1.94625C2.7649 0.982083 4.04525 0.5 5.5 0.5C6.95521 0.5 8.23579 0.982083 9.34175 1.94625C10.4477 2.91042 11.0005 4.205 11 5.83C11 6.91333 10.5444 8.09157 9.63325 9.3647C8.72208 10.6378 7.34433 12.0163 5.5 13.5Z" fill="white"/>
</svg>
