<svg width="12" height="12" viewBox="0 0 12 12" fill="none" xmlns="http://www.w3.org/2000/svg">
<path d="M10.8813 11.5C9.45143 11.5 8.10625 11.2296 6.84576 10.6888C5.58528 10.1479 4.48538 9.40762 3.54606 8.46785C2.60674 7.52845 1.86431 6.42845 1.31876 5.16785C0.773208 3.90725 0.500615 2.55773 0.500982 1.1193C0.491816 0.9543 0.546811 0.809833 0.665967 0.6859C0.785123 0.561967 0.931777 0.5 1.10593 0.5H3.25074C3.41572 0.5 3.55779 0.561967 3.67695 0.6859C3.7961 0.809833 3.85568 0.9587 3.85568 1.1325C3.85568 1.53583 3.88318 1.91625 3.93817 2.27375C3.99317 2.63125 4.08025 2.97042 4.1994 3.29125C4.24523 3.39208 4.2544 3.49512 4.2269 3.60035C4.1994 3.70558 4.14441 3.80422 4.06191 3.89625L2.68704 5.27125C3.08117 6.07792 3.64028 6.84333 4.36439 7.5675C5.08849 8.29167 5.86759 8.86917 6.70168 9.3L8.07655 7.925C8.15905 7.8425 8.25529 7.7875 8.36528 7.76C8.47527 7.7325 8.58526 7.74167 8.69525 7.7875C9.03439 7.8975 9.38507 7.98238 9.7473 8.04215C10.1095 8.10192 10.483 8.13162 10.8676 8.13125C11.0417 8.13125 11.1907 8.19542 11.3147 8.32375C11.4386 8.45208 11.5004 8.60792 11.5 8.79125V10.895C11.5 11.06 11.4404 11.2021 11.3213 11.3212C11.2021 11.4404 11.0555 11.5 10.8813 11.5ZM7.71909 9.85C8.13155 10.0058 8.56235 10.1296 9.01147 10.2212C9.4606 10.3129 9.92347 10.3725 10.4001 10.4V9.2175C10.116 9.19917 9.82485 9.16708 9.52678 9.12125C9.2287 9.07542 8.93319 9.00667 8.64025 8.915L7.71909 9.85ZM10.4001 6C10.4001 4.77167 9.97388 3.73125 9.12146 2.87875C8.26904 2.02625 7.22871 1.6 6.00049 1.6V0.5C6.76126 0.5 7.47619 0.644467 8.1453 0.9334C8.81441 1.22233 9.39644 1.61412 9.89139 2.10875C10.3863 2.60375 10.7783 3.18583 11.0672 3.855C11.3561 4.52417 11.5004 5.23917 11.5 6H10.4001ZM8.20029 6C8.20029 5.395 7.9849 4.87708 7.5541 4.44625C7.12331 4.01542 6.60544 3.8 6.00049 3.8V2.7C6.91708 2.7 7.69617 3.02083 8.33778 3.6625C8.97939 4.30417 9.3002 5.08333 9.3002 6H8.20029ZM2.15083 4.25375L3.05825 3.3325C2.98493 3.06667 2.92297 2.78708 2.87237 2.49375C2.82177 2.20042 2.78749 1.9025 2.76953 1.6H1.61463C1.63296 2.04 1.68796 2.48 1.77962 2.92C1.87128 3.36 1.99502 3.80458 2.15083 4.25375Z" fill="white"/>
</svg>
